<svg xmlns="http://www.w3.org/2000/svg" xmlns:xlink="http://www.w3.org/1999/xlink" width="600" height="400" viewBox="0 0 2400 1600">
<defs>
  <clipPath id="clip250">
    <rect x="0" y="0" width="2400" height="1600"></rect>
  </clipPath>
</defs>
<path clip-path="url(#clip250)" d="M0 1600 L2400 1600 L2400 0 L0 0  Z" fill="#ffffff" fill-rule="evenodd" fill-opacity="1"></path>
<defs>
  <clipPath id="clip251">
    <rect x="480" y="0" width="1681" height="1600"></rect>
  </clipPath>
</defs>
<path clip-path="url(#clip250)" d="M247.459 1423.18 L2352.76 1423.18 L2352.76 123.472 L247.459 123.472  Z" fill="#ffffff" fill-rule="evenodd" fill-opacity="1"></path>
<defs>
  <clipPath id="clip252">
    <rect x="247" y="123" width="2106" height="1301"></rect>
  </clipPath>
</defs>
<polyline clip-path="url(#clip252)" style="stroke:#000000; stroke-linecap:round; stroke-linejoin:round; stroke-width:2; stroke-opacity:0.1; fill:none" points="307.043,1423.18 307.043,123.472 "></polyline>
<polyline clip-path="url(#clip252)" style="stroke:#000000; stroke-linecap:round; stroke-linejoin:round; stroke-width:2; stroke-opacity:0.1; fill:none" points="803.575,1423.18 803.575,123.472 "></polyline>
<polyline clip-path="url(#clip252)" style="stroke:#000000; stroke-linecap:round; stroke-linejoin:round; stroke-width:2; stroke-opacity:0.1; fill:none" points="1300.11,1423.18 1300.11,123.472 "></polyline>
<polyline clip-path="url(#clip252)" style="stroke:#000000; stroke-linecap:round; stroke-linejoin:round; stroke-width:2; stroke-opacity:0.1; fill:none" points="1796.64,1423.18 1796.64,123.472 "></polyline>
<polyline clip-path="url(#clip252)" style="stroke:#000000; stroke-linecap:round; stroke-linejoin:round; stroke-width:2; stroke-opacity:0.1; fill:none" points="2293.17,1423.18 2293.17,123.472 "></polyline>
<polyline clip-path="url(#clip252)" style="stroke:#000000; stroke-linecap:round; stroke-linejoin:round; stroke-width:2; stroke-opacity:0.1; fill:none" points="247.459,1386.4 2352.76,1386.4 "></polyline>
<polyline clip-path="url(#clip252)" style="stroke:#000000; stroke-linecap:round; stroke-linejoin:round; stroke-width:2; stroke-opacity:0.1; fill:none" points="247.459,1079.86 2352.76,1079.86 "></polyline>
<polyline clip-path="url(#clip252)" style="stroke:#000000; stroke-linecap:round; stroke-linejoin:round; stroke-width:2; stroke-opacity:0.1; fill:none" points="247.459,773.326 2352.76,773.326 "></polyline>
<polyline clip-path="url(#clip252)" style="stroke:#000000; stroke-linecap:round; stroke-linejoin:round; stroke-width:2; stroke-opacity:0.1; fill:none" points="247.459,466.791 2352.76,466.791 "></polyline>
<polyline clip-path="url(#clip252)" style="stroke:#000000; stroke-linecap:round; stroke-linejoin:round; stroke-width:2; stroke-opacity:0.1; fill:none" points="247.459,160.256 2352.76,160.256 "></polyline>
<polyline clip-path="url(#clip250)" style="stroke:#000000; stroke-linecap:round; stroke-linejoin:round; stroke-width:4; stroke-opacity:1; fill:none" points="247.459,1423.18 2352.76,1423.18 "></polyline>
<polyline clip-path="url(#clip250)" style="stroke:#000000; stroke-linecap:round; stroke-linejoin:round; stroke-width:4; stroke-opacity:1; fill:none" points="307.043,1423.18 307.043,1404.28 "></polyline>
<polyline clip-path="url(#clip250)" style="stroke:#000000; stroke-linecap:round; stroke-linejoin:round; stroke-width:4; stroke-opacity:1; fill:none" points="803.575,1423.18 803.575,1404.28 "></polyline>
<polyline clip-path="url(#clip250)" style="stroke:#000000; stroke-linecap:round; stroke-linejoin:round; stroke-width:4; stroke-opacity:1; fill:none" points="1300.11,1423.18 1300.11,1404.28 "></polyline>
<polyline clip-path="url(#clip250)" style="stroke:#000000; stroke-linecap:round; stroke-linejoin:round; stroke-width:4; stroke-opacity:1; fill:none" points="1796.64,1423.18 1796.64,1404.28 "></polyline>
<polyline clip-path="url(#clip250)" style="stroke:#000000; stroke-linecap:round; stroke-linejoin:round; stroke-width:4; stroke-opacity:1; fill:none" points="2293.17,1423.18 2293.17,1404.28 "></polyline>
<path clip-path="url(#clip250)" d="M284.427 1454.1 Q280.816 1454.1 278.987 1457.66 Q277.182 1461.2 277.182 1468.33 Q277.182 1475.44 278.987 1479.01 Q280.816 1482.55 284.427 1482.55 Q288.061 1482.55 289.867 1479.01 Q291.695 1475.44 291.695 1468.33 Q291.695 1461.2 289.867 1457.66 Q288.061 1454.1 284.427 1454.1 M284.427 1450.39 Q290.237 1450.39 293.293 1455 Q296.371 1459.58 296.371 1468.33 Q296.371 1477.06 293.293 1481.67 Q290.237 1486.25 284.427 1486.25 Q278.617 1486.25 275.538 1481.67 Q272.483 1477.06 272.483 1468.33 Q272.483 1459.58 275.538 1455 Q278.617 1450.39 284.427 1450.39 Z" fill="#000000" fill-rule="nonzero" fill-opacity="1"></path><path clip-path="url(#clip250)" d="M304.589 1479.7 L309.473 1479.7 L309.473 1485.58 L304.589 1485.58 L304.589 1479.7 Z" fill="#000000" fill-rule="nonzero" fill-opacity="1"></path><path clip-path="url(#clip250)" d="M329.658 1454.1 Q326.047 1454.1 324.218 1457.66 Q322.413 1461.2 322.413 1468.33 Q322.413 1475.44 324.218 1479.01 Q326.047 1482.55 329.658 1482.55 Q333.292 1482.55 335.098 1479.01 Q336.927 1475.44 336.927 1468.33 Q336.927 1461.2 335.098 1457.66 Q333.292 1454.1 329.658 1454.1 M329.658 1450.39 Q335.468 1450.39 338.524 1455 Q341.603 1459.58 341.603 1468.33 Q341.603 1477.06 338.524 1481.67 Q335.468 1486.25 329.658 1486.25 Q323.848 1486.25 320.769 1481.67 Q317.714 1477.06 317.714 1468.33 Q317.714 1459.58 320.769 1455 Q323.848 1450.39 329.658 1450.39 Z" fill="#000000" fill-rule="nonzero" fill-opacity="1"></path><path clip-path="url(#clip250)" d="M775.311 1481.64 L791.631 1481.64 L791.631 1485.58 L769.686 1485.58 L769.686 1481.64 Q772.348 1478.89 776.932 1474.26 Q781.538 1469.61 782.719 1468.27 Q784.964 1465.74 785.844 1464.01 Q786.746 1462.25 786.746 1460.56 Q786.746 1457.8 784.802 1456.07 Q782.881 1454.33 779.779 1454.33 Q777.58 1454.33 775.126 1455.09 Q772.695 1455.86 769.918 1457.41 L769.918 1452.69 Q772.742 1451.55 775.195 1450.97 Q777.649 1450.39 779.686 1450.39 Q785.057 1450.39 788.251 1453.08 Q791.445 1455.77 791.445 1460.26 Q791.445 1462.39 790.635 1464.31 Q789.848 1466.2 787.742 1468.8 Q787.163 1469.47 784.061 1472.69 Q780.959 1475.88 775.311 1481.64 Z" fill="#000000" fill-rule="nonzero" fill-opacity="1"></path><path clip-path="url(#clip250)" d="M801.445 1479.7 L806.33 1479.7 L806.33 1485.58 L801.445 1485.58 L801.445 1479.7 Z" fill="#000000" fill-rule="nonzero" fill-opacity="1"></path><path clip-path="url(#clip250)" d="M816.561 1451.02 L834.917 1451.02 L834.917 1454.96 L820.843 1454.96 L820.843 1463.43 Q821.862 1463.08 822.88 1462.92 Q823.899 1462.73 824.917 1462.73 Q830.704 1462.73 834.084 1465.9 Q837.464 1469.08 837.464 1474.49 Q837.464 1480.07 833.991 1483.17 Q830.519 1486.25 824.2 1486.25 Q822.024 1486.25 819.755 1485.88 Q817.51 1485.51 815.103 1484.77 L815.103 1480.07 Q817.186 1481.2 819.408 1481.76 Q821.63 1482.32 824.107 1482.32 Q828.112 1482.32 830.45 1480.21 Q832.788 1478.1 832.788 1474.49 Q832.788 1470.88 830.45 1468.77 Q828.112 1466.67 824.107 1466.67 Q822.232 1466.67 820.357 1467.08 Q818.505 1467.5 816.561 1468.38 L816.561 1451.02 Z" fill="#000000" fill-rule="nonzero" fill-opacity="1"></path><path clip-path="url(#clip250)" d="M1267.27 1451.02 L1285.63 1451.02 L1285.63 1454.96 L1271.55 1454.96 L1271.55 1463.43 Q1272.57 1463.08 1273.59 1462.92 Q1274.61 1462.73 1275.63 1462.73 Q1281.42 1462.73 1284.79 1465.9 Q1288.17 1469.08 1288.17 1474.49 Q1288.17 1480.07 1284.7 1483.17 Q1281.23 1486.25 1274.91 1486.25 Q1272.73 1486.25 1270.47 1485.88 Q1268.22 1485.51 1265.81 1484.77 L1265.81 1480.07 Q1267.9 1481.2 1270.12 1481.76 Q1272.34 1482.32 1274.82 1482.32 Q1278.82 1482.32 1281.16 1480.21 Q1283.5 1478.1 1283.5 1474.49 Q1283.5 1470.88 1281.16 1468.77 Q1278.82 1466.67 1274.82 1466.67 Q1272.94 1466.67 1271.07 1467.08 Q1269.22 1467.5 1267.27 1468.38 L1267.27 1451.02 Z" fill="#000000" fill-rule="nonzero" fill-opacity="1"></path><path clip-path="url(#clip250)" d="M1297.39 1479.7 L1302.27 1479.7 L1302.27 1485.58 L1297.39 1485.58 L1297.39 1479.7 Z" fill="#000000" fill-rule="nonzero" fill-opacity="1"></path><path clip-path="url(#clip250)" d="M1322.46 1454.1 Q1318.85 1454.1 1317.02 1457.66 Q1315.21 1461.2 1315.21 1468.33 Q1315.21 1475.44 1317.02 1479.01 Q1318.85 1482.55 1322.46 1482.55 Q1326.09 1482.55 1327.9 1479.01 Q1329.73 1475.44 1329.73 1468.33 Q1329.73 1461.2 1327.9 1457.66 Q1326.09 1454.1 1322.46 1454.1 M1322.46 1450.39 Q1328.27 1450.39 1331.32 1455 Q1334.4 1459.58 1334.4 1468.33 Q1334.4 1477.06 1331.32 1481.67 Q1328.27 1486.25 1322.46 1486.25 Q1316.65 1486.25 1313.57 1481.67 Q1310.51 1477.06 1310.51 1468.33 Q1310.51 1459.58 1313.57 1455 Q1316.65 1450.39 1322.46 1450.39 Z" fill="#000000" fill-rule="nonzero" fill-opacity="1"></path><path clip-path="url(#clip250)" d="M1762.96 1451.02 L1785.18 1451.02 L1785.18 1453.01 L1772.64 1485.58 L1767.75 1485.58 L1779.56 1454.96 L1762.96 1454.96 L1762.96 1451.02 Z" fill="#000000" fill-rule="nonzero" fill-opacity="1"></path><path clip-path="url(#clip250)" d="M1794.3 1479.7 L1799.19 1479.7 L1799.19 1485.58 L1794.3 1485.58 L1794.3 1479.7 Z" fill="#000000" fill-rule="nonzero" fill-opacity="1"></path><path clip-path="url(#clip250)" d="M1809.42 1451.02 L1827.77 1451.02 L1827.77 1454.96 L1813.7 1454.96 L1813.7 1463.43 Q1814.72 1463.08 1815.74 1462.92 Q1816.76 1462.73 1817.77 1462.73 Q1823.56 1462.73 1826.94 1465.9 Q1830.32 1469.08 1830.32 1474.49 Q1830.32 1480.07 1826.85 1483.17 Q1823.38 1486.25 1817.06 1486.25 Q1814.88 1486.25 1812.61 1485.88 Q1810.37 1485.51 1807.96 1484.77 L1807.96 1480.07 Q1810.04 1481.2 1812.26 1481.76 Q1814.49 1482.32 1816.96 1482.32 Q1820.97 1482.32 1823.31 1480.21 Q1825.64 1478.1 1825.64 1474.49 Q1825.64 1470.88 1823.31 1468.77 Q1820.97 1466.67 1816.96 1466.67 Q1815.09 1466.67 1813.21 1467.08 Q1811.36 1467.5 1809.42 1468.38 L1809.42 1451.02 Z" fill="#000000" fill-rule="nonzero" fill-opacity="1"></path><path clip-path="url(#clip250)" d="M2245.24 1481.64 L2252.88 1481.64 L2252.88 1455.28 L2244.57 1456.95 L2244.57 1452.69 L2252.84 1451.02 L2257.51 1451.02 L2257.51 1481.64 L2265.15 1481.64 L2265.15 1485.58 L2245.24 1485.58 L2245.24 1481.64 Z" fill="#000000" fill-rule="nonzero" fill-opacity="1"></path><path clip-path="url(#clip250)" d="M2284.6 1454.1 Q2280.98 1454.1 2279.16 1457.66 Q2277.35 1461.2 2277.35 1468.33 Q2277.35 1475.44 2279.16 1479.01 Q2280.98 1482.55 2284.6 1482.55 Q2288.23 1482.55 2290.04 1479.01 Q2291.86 1475.44 2291.86 1468.33 Q2291.86 1461.2 2290.04 1457.66 Q2288.23 1454.1 2284.6 1454.1 M2284.6 1450.39 Q2290.41 1450.39 2293.46 1455 Q2296.54 1459.58 2296.54 1468.33 Q2296.54 1477.06 2293.46 1481.67 Q2290.41 1486.25 2284.6 1486.25 Q2278.79 1486.25 2275.71 1481.67 Q2272.65 1477.06 2272.65 1468.33 Q2272.65 1459.58 2275.71 1455 Q2278.79 1450.39 2284.6 1450.39 Z" fill="#000000" fill-rule="nonzero" fill-opacity="1"></path><path clip-path="url(#clip250)" d="M2304.76 1479.7 L2309.64 1479.7 L2309.64 1485.58 L2304.76 1485.58 L2304.76 1479.7 Z" fill="#000000" fill-rule="nonzero" fill-opacity="1"></path><path clip-path="url(#clip250)" d="M2329.83 1454.1 Q2326.22 1454.1 2324.39 1457.66 Q2322.58 1461.2 2322.58 1468.33 Q2322.58 1475.44 2324.39 1479.01 Q2326.22 1482.55 2329.83 1482.55 Q2333.46 1482.55 2335.27 1479.01 Q2337.1 1475.44 2337.1 1468.33 Q2337.1 1461.2 2335.27 1457.66 Q2333.46 1454.1 2329.83 1454.1 M2329.83 1450.39 Q2335.64 1450.39 2338.69 1455 Q2341.77 1459.58 2341.77 1468.33 Q2341.77 1477.06 2338.69 1481.67 Q2335.64 1486.25 2329.83 1486.25 Q2324.02 1486.25 2320.94 1481.67 Q2317.88 1477.06 2317.88 1468.33 Q2317.88 1459.58 2320.94 1455 Q2324.02 1450.39 2329.83 1450.39 Z" fill="#000000" fill-rule="nonzero" fill-opacity="1"></path><path clip-path="url(#clip250)" d="M1234.25 1545.35 L1234.25 1562.76 L1244.57 1562.76 Q1249.75 1562.76 1252.24 1560.63 Q1254.75 1558.46 1254.75 1554.04 Q1254.75 1549.58 1252.24 1547.48 Q1249.75 1545.35 1244.57 1545.35 L1234.25 1545.35 M1234.25 1525.81 L1234.25 1540.13 L1243.77 1540.13 Q1248.48 1540.13 1250.77 1538.38 Q1253.1 1536.6 1253.1 1532.97 Q1253.1 1529.37 1250.77 1527.59 Q1248.48 1525.81 1243.77 1525.81 L1234.25 1525.81 M1227.82 1520.52 L1244.25 1520.52 Q1251.6 1520.52 1255.58 1523.58 Q1259.56 1526.63 1259.56 1532.27 Q1259.56 1536.63 1257.52 1539.21 Q1255.48 1541.79 1251.54 1542.42 Q1256.28 1543.44 1258.89 1546.69 Q1261.53 1549.9 1261.53 1554.74 Q1261.53 1561.11 1257.2 1564.57 Q1252.87 1568.04 1244.88 1568.04 L1227.82 1568.04 L1227.82 1520.52 Z" fill="#000000" fill-rule="nonzero" fill-opacity="1"></path><path clip-path="url(#clip250)" d="M1272.29 1532.4 L1278.15 1532.4 L1278.15 1568.04 L1272.29 1568.04 L1272.29 1532.4 M1272.29 1518.52 L1278.15 1518.52 L1278.15 1525.93 L1272.29 1525.93 L1272.29 1518.52 Z" fill="#000000" fill-rule="nonzero" fill-opacity="1"></path><path clip-path="url(#clip250)" d="M1311.06 1537.87 Q1310.07 1537.3 1308.89 1537.04 Q1307.75 1536.76 1306.35 1536.76 Q1301.38 1536.76 1298.71 1540 Q1296.07 1543.22 1296.07 1549.27 L1296.07 1568.04 L1290.18 1568.04 L1290.18 1532.4 L1296.07 1532.4 L1296.07 1537.93 Q1297.91 1534.69 1300.87 1533.13 Q1303.83 1531.54 1308.06 1531.54 Q1308.67 1531.54 1309.4 1531.63 Q1310.13 1531.7 1311.02 1531.85 L1311.06 1537.87 Z" fill="#000000" fill-rule="nonzero" fill-opacity="1"></path><path clip-path="url(#clip250)" d="M1322.99 1522.27 L1322.99 1532.4 L1335.06 1532.4 L1335.06 1536.95 L1322.99 1536.95 L1322.99 1556.3 Q1322.99 1560.66 1324.17 1561.9 Q1325.38 1563.14 1329.04 1563.14 L1335.06 1563.14 L1335.06 1568.04 L1329.04 1568.04 Q1322.26 1568.04 1319.68 1565.53 Q1317.1 1562.98 1317.1 1556.3 L1317.1 1536.95 L1312.81 1536.95 L1312.81 1532.4 L1317.1 1532.4 L1317.1 1522.27 L1322.99 1522.27 Z" fill="#000000" fill-rule="nonzero" fill-opacity="1"></path><path clip-path="url(#clip250)" d="M1372.39 1546.53 L1372.39 1568.04 L1366.53 1568.04 L1366.53 1546.72 Q1366.53 1541.66 1364.56 1539.14 Q1362.59 1536.63 1358.64 1536.63 Q1353.9 1536.63 1351.16 1539.65 Q1348.42 1542.68 1348.42 1547.9 L1348.42 1568.04 L1342.53 1568.04 L1342.53 1518.52 L1348.42 1518.52 L1348.42 1537.93 Q1350.52 1534.72 1353.36 1533.13 Q1356.22 1531.54 1359.94 1531.54 Q1366.09 1531.54 1369.24 1535.36 Q1372.39 1539.14 1372.39 1546.53 Z" fill="#000000" fill-rule="nonzero" fill-opacity="1"></path><polyline clip-path="url(#clip250)" style="stroke:#000000; stroke-linecap:round; stroke-linejoin:round; stroke-width:4; stroke-opacity:1; fill:none" points="247.459,1423.18 247.459,123.472 "></polyline>
<polyline clip-path="url(#clip250)" style="stroke:#000000; stroke-linecap:round; stroke-linejoin:round; stroke-width:4; stroke-opacity:1; fill:none" points="247.459,1386.4 266.356,1386.4 "></polyline>
<polyline clip-path="url(#clip250)" style="stroke:#000000; stroke-linecap:round; stroke-linejoin:round; stroke-width:4; stroke-opacity:1; fill:none" points="247.459,1079.86 266.356,1079.86 "></polyline>
<polyline clip-path="url(#clip250)" style="stroke:#000000; stroke-linecap:round; stroke-linejoin:round; stroke-width:4; stroke-opacity:1; fill:none" points="247.459,773.326 266.356,773.326 "></polyline>
<polyline clip-path="url(#clip250)" style="stroke:#000000; stroke-linecap:round; stroke-linejoin:round; stroke-width:4; stroke-opacity:1; fill:none" points="247.459,466.791 266.356,466.791 "></polyline>
<polyline clip-path="url(#clip250)" style="stroke:#000000; stroke-linecap:round; stroke-linejoin:round; stroke-width:4; stroke-opacity:1; fill:none" points="247.459,160.256 266.356,160.256 "></polyline>
<path clip-path="url(#clip250)" d="M154.283 1372.19 Q150.672 1372.19 148.843 1375.76 Q147.038 1379.3 147.038 1386.43 Q147.038 1393.54 148.843 1397.1 Q150.672 1400.64 154.283 1400.64 Q157.917 1400.64 159.723 1397.1 Q161.552 1393.54 161.552 1386.43 Q161.552 1379.3 159.723 1375.76 Q157.917 1372.19 154.283 1372.19 M154.283 1368.49 Q160.093 1368.49 163.149 1373.1 Q166.227 1377.68 166.227 1386.43 Q166.227 1395.16 163.149 1399.76 Q160.093 1404.35 154.283 1404.35 Q148.473 1404.35 145.394 1399.76 Q142.339 1395.16 142.339 1386.43 Q142.339 1377.68 145.394 1373.1 Q148.473 1368.49 154.283 1368.49 Z" fill="#000000" fill-rule="nonzero" fill-opacity="1"></path><path clip-path="url(#clip250)" d="M174.445 1397.8 L179.329 1397.8 L179.329 1403.68 L174.445 1403.68 L174.445 1397.8 Z" fill="#000000" fill-rule="nonzero" fill-opacity="1"></path><path clip-path="url(#clip250)" d="M199.514 1372.19 Q195.903 1372.19 194.075 1375.76 Q192.269 1379.3 192.269 1386.43 Q192.269 1393.54 194.075 1397.1 Q195.903 1400.64 199.514 1400.64 Q203.149 1400.64 204.954 1397.1 Q206.783 1393.54 206.783 1386.43 Q206.783 1379.3 204.954 1375.76 Q203.149 1372.19 199.514 1372.19 M199.514 1368.49 Q205.324 1368.49 208.38 1373.1 Q211.459 1377.68 211.459 1386.43 Q211.459 1395.16 208.38 1399.76 Q205.324 1404.35 199.514 1404.35 Q193.704 1404.35 190.625 1399.76 Q187.57 1395.16 187.57 1386.43 Q187.57 1377.68 190.625 1373.1 Q193.704 1368.49 199.514 1368.49 Z" fill="#000000" fill-rule="nonzero" fill-opacity="1"></path><path clip-path="url(#clip250)" d="M149.306 1093.21 L165.626 1093.21 L165.626 1097.14 L143.681 1097.14 L143.681 1093.21 Q146.343 1090.45 150.927 1085.82 Q155.533 1081.17 156.714 1079.83 Q158.959 1077.3 159.839 1075.57 Q160.741 1073.81 160.741 1072.12 Q160.741 1069.36 158.797 1067.63 Q156.876 1065.89 153.774 1065.89 Q151.575 1065.89 149.121 1066.65 Q146.691 1067.42 143.913 1068.97 L143.913 1064.25 Q146.737 1063.11 149.191 1062.53 Q151.644 1061.96 153.681 1061.96 Q159.052 1061.96 162.246 1064.64 Q165.44 1067.33 165.44 1071.82 Q165.44 1073.95 164.63 1075.87 Q163.843 1077.77 161.737 1080.36 Q161.158 1081.03 158.056 1084.25 Q154.954 1087.44 149.306 1093.21 Z" fill="#000000" fill-rule="nonzero" fill-opacity="1"></path><path clip-path="url(#clip250)" d="M175.44 1091.26 L180.325 1091.26 L180.325 1097.14 L175.44 1097.14 L175.44 1091.26 Z" fill="#000000" fill-rule="nonzero" fill-opacity="1"></path><path clip-path="url(#clip250)" d="M190.556 1062.58 L208.912 1062.58 L208.912 1066.52 L194.838 1066.52 L194.838 1074.99 Q195.857 1074.64 196.875 1074.48 Q197.894 1074.29 198.912 1074.29 Q204.699 1074.29 208.079 1077.47 Q211.459 1080.64 211.459 1086.05 Q211.459 1091.63 207.987 1094.73 Q204.514 1097.81 198.195 1097.81 Q196.019 1097.81 193.75 1097.44 Q191.505 1097.07 189.098 1096.33 L189.098 1091.63 Q191.181 1092.77 193.403 1093.32 Q195.625 1093.88 198.102 1093.88 Q202.107 1093.88 204.445 1091.77 Q206.783 1089.66 206.783 1086.05 Q206.783 1082.44 204.445 1080.34 Q202.107 1078.23 198.102 1078.23 Q196.227 1078.23 194.352 1078.65 Q192.5 1079.06 190.556 1079.94 L190.556 1062.58 Z" fill="#000000" fill-rule="nonzero" fill-opacity="1"></path><path clip-path="url(#clip250)" d="M144.329 756.046 L162.686 756.046 L162.686 759.981 L148.612 759.981 L148.612 768.453 Q149.63 768.106 150.649 767.944 Q151.667 767.759 152.686 767.759 Q158.473 767.759 161.852 770.93 Q165.232 774.101 165.232 779.518 Q165.232 785.097 161.76 788.199 Q158.288 791.277 151.968 791.277 Q149.792 791.277 147.524 790.907 Q145.279 790.537 142.871 789.796 L142.871 785.097 Q144.954 786.231 147.177 786.787 Q149.399 787.342 151.876 787.342 Q155.88 787.342 158.218 785.236 Q160.556 783.129 160.556 779.518 Q160.556 775.907 158.218 773.801 Q155.88 771.694 151.876 771.694 Q150.001 771.694 148.126 772.111 Q146.274 772.527 144.329 773.407 L144.329 756.046 Z" fill="#000000" fill-rule="nonzero" fill-opacity="1"></path><path clip-path="url(#clip250)" d="M174.445 784.726 L179.329 784.726 L179.329 790.606 L174.445 790.606 L174.445 784.726 Z" fill="#000000" fill-rule="nonzero" fill-opacity="1"></path><path clip-path="url(#clip250)" d="M199.514 759.125 Q195.903 759.125 194.075 762.689 Q192.269 766.231 192.269 773.361 Q192.269 780.467 194.075 784.032 Q195.903 787.574 199.514 787.574 Q203.149 787.574 204.954 784.032 Q206.783 780.467 206.783 773.361 Q206.783 766.231 204.954 762.689 Q203.149 759.125 199.514 759.125 M199.514 755.421 Q205.324 755.421 208.38 760.027 Q211.459 764.611 211.459 773.361 Q211.459 782.088 208.38 786.694 Q205.324 791.277 199.514 791.277 Q193.704 791.277 190.625 786.694 Q187.57 782.088 187.57 773.361 Q187.57 764.611 190.625 760.027 Q193.704 755.421 199.514 755.421 Z" fill="#000000" fill-rule="nonzero" fill-opacity="1"></path><path clip-path="url(#clip250)" d="M144.098 449.511 L166.32 449.511 L166.32 451.502 L153.774 484.071 L148.89 484.071 L160.695 453.446 L144.098 453.446 L144.098 449.511 Z" fill="#000000" fill-rule="nonzero" fill-opacity="1"></path><path clip-path="url(#clip250)" d="M175.44 478.192 L180.325 478.192 L180.325 484.071 L175.44 484.071 L175.44 478.192 Z" fill="#000000" fill-rule="nonzero" fill-opacity="1"></path><path clip-path="url(#clip250)" d="M190.556 449.511 L208.912 449.511 L208.912 453.446 L194.838 453.446 L194.838 461.918 Q195.857 461.571 196.875 461.409 Q197.894 461.224 198.912 461.224 Q204.699 461.224 208.079 464.395 Q211.459 467.567 211.459 472.983 Q211.459 478.562 207.987 481.664 Q204.514 484.742 198.195 484.742 Q196.019 484.742 193.75 484.372 Q191.505 484.002 189.098 483.261 L189.098 478.562 Q191.181 479.696 193.403 480.252 Q195.625 480.807 198.102 480.807 Q202.107 480.807 204.445 478.701 Q206.783 476.594 206.783 472.983 Q206.783 469.372 204.445 467.266 Q202.107 465.159 198.102 465.159 Q196.227 465.159 194.352 465.576 Q192.5 465.993 190.556 466.872 L190.556 449.511 Z" fill="#000000" fill-rule="nonzero" fill-opacity="1"></path><path clip-path="url(#clip250)" d="M114.931 173.601 L122.57 173.601 L122.57 147.236 L114.26 148.902 L114.26 144.643 L122.524 142.976 L127.2 142.976 L127.2 173.601 L134.839 173.601 L134.839 177.536 L114.931 177.536 L114.931 173.601 Z" fill="#000000" fill-rule="nonzero" fill-opacity="1"></path><path clip-path="url(#clip250)" d="M154.283 146.055 Q150.672 146.055 148.843 149.62 Q147.038 153.161 147.038 160.291 Q147.038 167.397 148.843 170.962 Q150.672 174.504 154.283 174.504 Q157.917 174.504 159.723 170.962 Q161.552 167.397 161.552 160.291 Q161.552 153.161 159.723 149.62 Q157.917 146.055 154.283 146.055 M154.283 142.351 Q160.093 142.351 163.149 146.958 Q166.227 151.541 166.227 160.291 Q166.227 169.018 163.149 173.624 Q160.093 178.208 154.283 178.208 Q148.473 178.208 145.394 173.624 Q142.339 169.018 142.339 160.291 Q142.339 151.541 145.394 146.958 Q148.473 142.351 154.283 142.351 Z" fill="#000000" fill-rule="nonzero" fill-opacity="1"></path><path clip-path="url(#clip250)" d="M174.445 171.657 L179.329 171.657 L179.329 177.536 L174.445 177.536 L174.445 171.657 Z" fill="#000000" fill-rule="nonzero" fill-opacity="1"></path><path clip-path="url(#clip250)" d="M199.514 146.055 Q195.903 146.055 194.075 149.62 Q192.269 153.161 192.269 160.291 Q192.269 167.397 194.075 170.962 Q195.903 174.504 199.514 174.504 Q203.149 174.504 204.954 170.962 Q206.783 167.397 206.783 160.291 Q206.783 153.161 204.954 149.62 Q203.149 146.055 199.514 146.055 M199.514 142.351 Q205.324 142.351 208.38 146.958 Q211.459 151.541 211.459 160.291 Q211.459 169.018 208.38 173.624 Q205.324 178.208 199.514 178.208 Q193.704 178.208 190.625 173.624 Q187.57 169.018 187.57 160.291 Q187.57 151.541 190.625 146.958 Q193.704 142.351 199.514 142.351 Z" fill="#000000" fill-rule="nonzero" fill-opacity="1"></path><path clip-path="url(#clip250)" d="M21.7677 859.486 L58.7206 859.486 L58.7206 851.72 Q58.7206 841.885 54.2646 837.333 Q49.8086 832.75 40.1964 832.75 Q30.6479 832.75 26.2237 837.333 Q21.7677 841.885 21.7677 851.72 L21.7677 859.486 M16.4842 865.915 L16.4842 852.706 Q16.4842 838.893 22.2451 832.432 Q27.9743 825.97 40.1964 825.97 Q52.4822 825.97 58.2432 832.463 Q64.0042 838.956 64.0042 852.706 L64.0042 865.915 L16.4842 865.915 Z" fill="#000000" fill-rule="nonzero" fill-opacity="1"></path><path clip-path="url(#clip250)" d="M44.7161 785.484 L47.5806 785.484 L47.5806 812.411 Q53.6281 812.029 56.8109 808.783 Q59.9619 805.505 59.9619 799.68 Q59.9619 796.306 59.1344 793.155 Q58.3069 789.972 56.6518 786.853 L62.1899 786.853 Q63.5267 790.004 64.227 793.314 Q64.9272 796.624 64.9272 800.03 Q64.9272 808.56 59.9619 813.557 Q54.9967 818.523 46.5303 818.523 Q37.7774 818.523 32.6531 813.812 Q27.4968 809.069 27.4968 801.049 Q27.4968 793.855 32.1438 789.686 Q36.7589 785.484 44.7161 785.484 M42.9973 791.341 Q38.1912 791.405 35.3266 794.046 Q32.4621 796.656 32.4621 800.985 Q32.4621 805.887 35.2312 808.847 Q38.0002 811.775 43.0292 812.22 L42.9973 791.341 Z" fill="#000000" fill-rule="nonzero" fill-opacity="1"></path><path clip-path="url(#clip250)" d="M46.0847 759.672 Q46.0847 766.769 47.7079 769.507 Q49.3312 772.244 53.2461 772.244 Q56.3653 772.244 58.2114 770.207 Q60.0256 768.138 60.0256 764.605 Q60.0256 759.735 56.5881 756.807 Q53.1188 753.847 47.3897 753.847 L46.0847 753.847 L46.0847 759.672 M43.6657 747.99 L64.0042 747.99 L64.0042 753.847 L58.5933 753.847 Q61.8398 755.852 63.3994 758.844 Q64.9272 761.836 64.9272 766.165 Q64.9272 771.639 61.8716 774.886 Q58.7843 778.1 53.6281 778.1 Q47.6125 778.1 44.5569 774.09 Q41.5014 770.048 41.5014 762.059 L41.5014 753.847 L40.9285 753.847 Q36.8862 753.847 34.6901 756.521 Q32.4621 759.162 32.4621 763.968 Q32.4621 767.024 33.1941 769.92 Q33.9262 772.817 35.3903 775.49 L29.9795 775.49 Q28.7381 772.276 28.1334 769.252 Q27.4968 766.228 27.4968 763.364 Q27.4968 755.629 31.5072 751.81 Q35.5176 747.99 43.6657 747.99 Z" fill="#000000" fill-rule="nonzero" fill-opacity="1"></path><path clip-path="url(#clip250)" d="M18.2347 730.135 L28.3562 730.135 L28.3562 718.072 L32.9077 718.072 L32.9077 730.135 L52.2594 730.135 Q56.6199 730.135 57.8613 728.957 Q59.1026 727.748 59.1026 724.087 L59.1026 718.072 L64.0042 718.072 L64.0042 724.087 Q64.0042 730.867 61.4897 733.445 Q58.9434 736.023 52.2594 736.023 L32.9077 736.023 L32.9077 740.32 L28.3562 740.32 L28.3562 736.023 L18.2347 736.023 L18.2347 730.135 Z" fill="#000000" fill-rule="nonzero" fill-opacity="1"></path><path clip-path="url(#clip250)" d="M42.4881 680.737 L64.0042 680.737 L64.0042 686.593 L42.679 686.593 Q37.6183 686.593 35.1038 688.567 Q32.5894 690.54 32.5894 694.487 Q32.5894 699.229 35.6131 701.966 Q38.6368 704.704 43.8567 704.704 L64.0042 704.704 L64.0042 710.592 L14.479 710.592 L14.479 704.704 L33.8944 704.704 Q30.6797 702.603 29.0883 699.77 Q27.4968 696.906 27.4968 693.182 Q27.4968 687.039 31.3163 683.888 Q35.1038 680.737 42.4881 680.737 Z" fill="#000000" fill-rule="nonzero" fill-opacity="1"></path><path clip-path="url(#clip250)" d="M887.34 18.8205 L887.34 41.5461 L897.63 41.5461 Q903.341 41.5461 906.461 38.5889 Q909.58 35.6318 909.58 30.163 Q909.58 24.7348 906.461 21.7777 Q903.341 18.8205 897.63 18.8205 L887.34 18.8205 M879.158 12.096 L897.63 12.096 Q907.797 12.096 912.983 16.714 Q918.208 21.2916 918.208 30.163 Q918.208 39.1155 912.983 43.6931 Q907.797 48.2706 897.63 48.2706 L887.34 48.2706 L887.34 72.576 L879.158 72.576 L879.158 12.096 Z" fill="#000000" fill-rule="nonzero" fill-opacity="1"></path><path clip-path="url(#clip250)" d="M964.713 48.0275 L964.713 51.6733 L930.442 51.6733 Q930.928 59.3701 935.06 63.421 Q939.233 67.4314 946.646 67.4314 Q950.94 67.4314 954.95 66.3781 Q959.001 65.3249 962.971 63.2184 L962.971 70.267 Q958.96 71.9684 954.747 72.8596 Q950.535 73.7508 946.2 73.7508 Q935.344 73.7508 928.984 67.4314 Q922.664 61.1119 922.664 50.3365 Q922.664 39.1965 928.66 32.6746 Q934.695 26.1121 944.904 26.1121 Q954.059 26.1121 959.365 32.0264 Q964.713 37.9003 964.713 48.0275 M957.259 45.84 Q957.178 39.7232 953.816 36.0774 Q950.494 32.4315 944.985 32.4315 Q938.746 32.4315 934.979 35.9558 Q931.252 39.4801 930.685 45.8805 L957.259 45.84 Z" fill="#000000" fill-rule="nonzero" fill-opacity="1"></path><path clip-path="url(#clip250)" d="M1003.24 34.1734 Q1001.98 33.4443 1000.48 33.1202 Q999.024 32.7556 997.241 32.7556 Q990.922 32.7556 987.519 36.8875 Q984.157 40.9789 984.157 48.6757 L984.157 72.576 L976.663 72.576 L976.663 27.2059 L984.157 27.2059 L984.157 34.2544 Q986.507 30.1225 990.274 28.1376 Q994.041 26.1121 999.429 26.1121 Q1000.2 26.1121 1001.13 26.2337 Q1002.06 26.3147 1003.2 26.5172 L1003.24 34.1734 Z" fill="#000000" fill-rule="nonzero" fill-opacity="1"></path><path clip-path="url(#clip250)" d="M1039.98 28.5427 L1039.98 35.5912 Q1036.82 33.9709 1033.42 33.1607 Q1030.01 32.3505 1026.37 32.3505 Q1020.82 32.3505 1018.02 34.0519 Q1015.27 35.7533 1015.27 39.156 Q1015.27 41.7486 1017.25 43.2475 Q1019.24 44.7058 1025.23 46.0426 L1027.79 46.6097 Q1035.73 48.3111 1039.05 51.4303 Q1042.41 54.509 1042.41 60.0587 Q1042.41 66.3781 1037.39 70.0644 Q1032.4 73.7508 1023.65 73.7508 Q1020.01 73.7508 1016.04 73.0216 Q1012.11 72.3329 1007.73 70.9151 L1007.73 63.2184 Q1011.87 65.3654 1015.88 66.4591 Q1019.89 67.5124 1023.82 67.5124 Q1029.08 67.5124 1031.92 65.73 Q1034.75 63.9071 1034.75 60.6258 Q1034.75 57.5877 1032.69 55.9673 Q1030.66 54.3469 1023.73 52.8481 L1021.14 52.2405 Q1014.21 50.7821 1011.14 47.7845 Q1008.06 44.7463 1008.06 39.4801 Q1008.06 33.0797 1012.59 29.5959 Q1017.13 26.1121 1025.48 26.1121 Q1029.61 26.1121 1033.25 26.7198 Q1036.9 27.3274 1039.98 28.5427 Z" fill="#000000" fill-rule="nonzero" fill-opacity="1"></path><path clip-path="url(#clip250)" d="M1054.28 27.2059 L1061.73 27.2059 L1061.73 72.576 L1054.28 72.576 L1054.28 27.2059 M1054.28 9.54393 L1061.73 9.54393 L1061.73 18.9825 L1054.28 18.9825 L1054.28 9.54393 Z" fill="#000000" fill-rule="nonzero" fill-opacity="1"></path><path clip-path="url(#clip250)" d="M1106.25 28.5427 L1106.25 35.5912 Q1103.09 33.9709 1099.69 33.1607 Q1096.29 32.3505 1092.64 32.3505 Q1087.09 32.3505 1084.3 34.0519 Q1081.54 35.7533 1081.54 39.156 Q1081.54 41.7486 1083.53 43.2475 Q1085.51 44.7058 1091.51 46.0426 L1094.06 46.6097 Q1102 48.3111 1105.32 51.4303 Q1108.68 54.509 1108.68 60.0587 Q1108.68 66.3781 1103.66 70.0644 Q1098.68 73.7508 1089.93 73.7508 Q1086.28 73.7508 1082.31 73.0216 Q1078.38 72.3329 1074.01 70.9151 L1074.01 63.2184 Q1078.14 65.3654 1082.15 66.4591 Q1086.16 67.5124 1090.09 67.5124 Q1095.35 67.5124 1098.19 65.73 Q1101.03 63.9071 1101.03 60.6258 Q1101.03 57.5877 1098.96 55.9673 Q1096.93 54.3469 1090.01 52.8481 L1087.41 52.2405 Q1080.49 50.7821 1077.41 47.7845 Q1074.33 44.7463 1074.33 39.4801 Q1074.33 33.0797 1078.87 29.5959 Q1083.4 26.1121 1091.75 26.1121 Q1095.88 26.1121 1099.53 26.7198 Q1103.17 27.3274 1106.25 28.5427 Z" fill="#000000" fill-rule="nonzero" fill-opacity="1"></path><path clip-path="url(#clip250)" d="M1127.92 14.324 L1127.92 27.2059 L1143.28 27.2059 L1143.28 32.9987 L1127.92 32.9987 L1127.92 57.6282 Q1127.92 63.1779 1129.42 64.7578 Q1130.96 66.3376 1135.62 66.3376 L1143.28 66.3376 L1143.28 72.576 L1135.62 72.576 Q1126.99 72.576 1123.71 69.3758 Q1120.43 66.1351 1120.43 57.6282 L1120.43 32.9987 L1114.96 32.9987 L1114.96 27.2059 L1120.43 27.2059 L1120.43 14.324 L1127.92 14.324 Z" fill="#000000" fill-rule="nonzero" fill-opacity="1"></path><path clip-path="url(#clip250)" d="M1191.89 48.0275 L1191.89 51.6733 L1157.62 51.6733 Q1158.1 59.3701 1162.23 63.421 Q1166.41 67.4314 1173.82 67.4314 Q1178.11 67.4314 1182.12 66.3781 Q1186.18 65.3249 1190.15 63.2184 L1190.15 70.267 Q1186.14 71.9684 1181.92 72.8596 Q1177.71 73.7508 1173.37 73.7508 Q1162.52 73.7508 1156.16 67.4314 Q1149.84 61.1119 1149.84 50.3365 Q1149.84 39.1965 1155.83 32.6746 Q1161.87 26.1121 1172.08 26.1121 Q1181.23 26.1121 1186.54 32.0264 Q1191.89 37.9003 1191.89 48.0275 M1184.43 45.84 Q1184.35 39.7232 1180.99 36.0774 Q1177.67 32.4315 1172.16 32.4315 Q1165.92 32.4315 1162.15 35.9558 Q1158.43 39.4801 1157.86 45.8805 L1184.43 45.84 Z" fill="#000000" fill-rule="nonzero" fill-opacity="1"></path><path clip-path="url(#clip250)" d="M1241.84 45.1919 L1241.84 72.576 L1234.38 72.576 L1234.38 45.4349 Q1234.38 38.994 1231.87 35.7938 Q1229.36 32.5936 1224.34 32.5936 Q1218.3 32.5936 1214.82 36.4419 Q1211.33 40.2903 1211.33 46.9338 L1211.33 72.576 L1203.84 72.576 L1203.84 27.2059 L1211.33 27.2059 L1211.33 34.2544 Q1214.01 30.163 1217.61 28.1376 Q1221.26 26.1121 1226 26.1121 Q1233.81 26.1121 1237.82 30.9732 Q1241.84 35.7938 1241.84 45.1919 Z" fill="#000000" fill-rule="nonzero" fill-opacity="1"></path><path clip-path="url(#clip250)" d="M1289.35 28.9478 L1289.35 35.9153 Q1286.19 34.1734 1282.99 33.3227 Q1279.83 32.4315 1276.59 32.4315 Q1269.34 32.4315 1265.33 37.0496 Q1261.32 41.6271 1261.32 49.9314 Q1261.32 58.2358 1265.33 62.8538 Q1269.34 67.4314 1276.59 67.4314 Q1279.83 67.4314 1282.99 66.5807 Q1286.19 65.6895 1289.35 63.9476 L1289.35 70.8341 Q1286.23 72.2924 1282.87 73.0216 Q1279.55 73.7508 1275.78 73.7508 Q1265.53 73.7508 1259.5 67.3098 Q1253.46 60.8689 1253.46 49.9314 Q1253.46 38.832 1259.54 32.472 Q1265.65 26.1121 1276.27 26.1121 Q1279.71 26.1121 1282.99 26.8413 Q1286.27 27.5299 1289.35 28.9478 Z" fill="#000000" fill-rule="nonzero" fill-opacity="1"></path><path clip-path="url(#clip250)" d="M1341.12 48.0275 L1341.12 51.6733 L1306.85 51.6733 Q1307.34 59.3701 1311.47 63.421 Q1315.64 67.4314 1323.06 67.4314 Q1327.35 67.4314 1331.36 66.3781 Q1335.41 65.3249 1339.38 63.2184 L1339.38 70.267 Q1335.37 71.9684 1331.16 72.8596 Q1326.94 73.7508 1322.61 73.7508 Q1311.75 73.7508 1305.39 67.4314 Q1299.07 61.1119 1299.07 50.3365 Q1299.07 39.1965 1305.07 32.6746 Q1311.11 26.1121 1321.31 26.1121 Q1330.47 26.1121 1335.78 32.0264 Q1341.12 37.9003 1341.12 48.0275 M1333.67 45.84 Q1333.59 39.7232 1330.23 36.0774 Q1326.9 32.4315 1321.39 32.4315 Q1315.16 32.4315 1311.39 35.9558 Q1307.66 39.4801 1307.1 45.8805 L1333.67 45.84 Z" fill="#000000" fill-rule="nonzero" fill-opacity="1"></path><path clip-path="url(#clip250)" d="M1388.23 18.8205 L1388.23 65.8515 L1398.12 65.8515 Q1410.64 65.8515 1416.43 60.1802 Q1422.26 54.509 1422.26 42.2752 Q1422.26 30.1225 1416.43 24.4918 Q1410.64 18.8205 1398.12 18.8205 L1388.23 18.8205 M1380.05 12.096 L1396.86 12.096 Q1414.44 12.096 1422.67 19.4281 Q1430.89 26.7198 1430.89 42.2752 Q1430.89 57.9117 1422.63 65.2439 Q1414.36 72.576 1396.86 72.576 L1380.05 72.576 L1380.05 12.096 Z" fill="#000000" fill-rule="nonzero" fill-opacity="1"></path><path clip-path="url(#clip250)" d="M1443.61 27.2059 L1451.06 27.2059 L1451.06 72.576 L1443.61 72.576 L1443.61 27.2059 M1443.61 9.54393 L1451.06 9.54393 L1451.06 18.9825 L1443.61 18.9825 L1443.61 9.54393 Z" fill="#000000" fill-rule="nonzero" fill-opacity="1"></path><path clip-path="url(#clip250)" d="M1487.28 49.7694 Q1478.25 49.7694 1474.76 51.8354 Q1471.28 53.9013 1471.28 58.8839 Q1471.28 62.8538 1473.87 65.2034 Q1476.5 67.5124 1481 67.5124 Q1487.2 67.5124 1490.93 63.1374 Q1494.69 58.7219 1494.69 51.4303 L1494.69 49.7694 L1487.28 49.7694 M1502.15 46.6907 L1502.15 72.576 L1494.69 72.576 L1494.69 65.6895 Q1492.14 69.8214 1488.33 71.8063 Q1484.52 73.7508 1479.02 73.7508 Q1472.05 73.7508 1467.92 69.8619 Q1463.82 65.9325 1463.82 59.3701 Q1463.82 51.7138 1468.93 47.825 Q1474.07 43.9361 1484.24 43.9361 L1494.69 43.9361 L1494.69 43.2069 Q1494.69 38.0623 1491.29 35.2672 Q1487.93 32.4315 1481.81 32.4315 Q1477.92 32.4315 1474.24 33.3632 Q1470.55 34.295 1467.15 36.1584 L1467.15 29.2718 Q1471.24 27.692 1475.09 26.9223 Q1478.93 26.1121 1482.58 26.1121 Q1492.42 26.1121 1497.29 31.2163 Q1502.15 36.3204 1502.15 46.6907 Z" fill="#000000" fill-rule="nonzero" fill-opacity="1"></path><path clip-path="url(#clip250)" d="M1547.35 49.3643 Q1547.35 41.2625 1543.99 36.8065 Q1540.67 32.3505 1534.63 32.3505 Q1528.64 32.3505 1525.28 36.8065 Q1521.96 41.2625 1521.96 49.3643 Q1521.96 57.4256 1525.28 61.8816 Q1528.64 66.3376 1534.63 66.3376 Q1540.67 66.3376 1543.99 61.8816 Q1547.35 57.4256 1547.35 49.3643 M1554.81 66.9452 Q1554.81 78.5308 1549.66 84.1616 Q1544.52 89.8329 1533.91 89.8329 Q1529.98 89.8329 1526.49 89.2252 Q1523.01 88.6581 1519.73 87.4428 L1519.73 80.1917 Q1523.01 81.9741 1526.21 82.8248 Q1529.41 83.6755 1532.73 83.6755 Q1540.06 83.6755 1543.71 79.8271 Q1547.35 76.0193 1547.35 68.282 L1547.35 64.5957 Q1545.05 68.6061 1541.44 70.5911 Q1537.83 72.576 1532.81 72.576 Q1524.47 72.576 1519.36 66.2161 Q1514.26 59.8562 1514.26 49.3643 Q1514.26 38.832 1519.36 32.472 Q1524.47 26.1121 1532.81 26.1121 Q1537.83 26.1121 1541.44 28.0971 Q1545.05 30.082 1547.35 34.0924 L1547.35 27.2059 L1554.81 27.2059 L1554.81 66.9452 Z" fill="#000000" fill-rule="nonzero" fill-opacity="1"></path><path clip-path="url(#clip250)" d="M1596.45 34.1734 Q1595.2 33.4443 1593.7 33.1202 Q1592.24 32.7556 1590.46 32.7556 Q1584.14 32.7556 1580.73 36.8875 Q1577.37 40.9789 1577.37 48.6757 L1577.37 72.576 L1569.88 72.576 L1569.88 27.2059 L1577.37 27.2059 L1577.37 34.2544 Q1579.72 30.1225 1583.49 28.1376 Q1587.26 26.1121 1592.64 26.1121 Q1593.41 26.1121 1594.34 26.2337 Q1595.28 26.3147 1596.41 26.5172 L1596.45 34.1734 Z" fill="#000000" fill-rule="nonzero" fill-opacity="1"></path><path clip-path="url(#clip250)" d="M1624.89 49.7694 Q1615.86 49.7694 1612.37 51.8354 Q1608.89 53.9013 1608.89 58.8839 Q1608.89 62.8538 1611.48 65.2034 Q1614.11 67.5124 1618.61 67.5124 Q1624.81 67.5124 1628.53 63.1374 Q1632.3 58.7219 1632.3 51.4303 L1632.3 49.7694 L1624.89 49.7694 M1639.76 46.6907 L1639.76 72.576 L1632.3 72.576 L1632.3 65.6895 Q1629.75 69.8214 1625.94 71.8063 Q1622.13 73.7508 1616.62 73.7508 Q1609.66 73.7508 1605.53 69.8619 Q1601.43 65.9325 1601.43 59.3701 Q1601.43 51.7138 1606.54 47.825 Q1611.68 43.9361 1621.85 43.9361 L1632.3 43.9361 L1632.3 43.2069 Q1632.3 38.0623 1628.9 35.2672 Q1625.54 32.4315 1619.42 32.4315 Q1615.53 32.4315 1611.84 33.3632 Q1608.16 34.295 1604.76 36.1584 L1604.76 29.2718 Q1608.85 27.692 1612.7 26.9223 Q1616.54 26.1121 1620.19 26.1121 Q1630.03 26.1121 1634.89 31.2163 Q1639.76 36.3204 1639.76 46.6907 Z" fill="#000000" fill-rule="nonzero" fill-opacity="1"></path><path clip-path="url(#clip250)" d="M1690.43 35.9153 Q1693.23 30.8922 1697.12 28.5022 Q1701.01 26.1121 1706.27 26.1121 Q1713.36 26.1121 1717.21 31.0947 Q1721.06 36.0368 1721.06 45.1919 L1721.06 72.576 L1713.56 72.576 L1713.56 45.4349 Q1713.56 38.913 1711.25 35.7533 Q1708.94 32.5936 1704.21 32.5936 Q1698.41 32.5936 1695.05 36.4419 Q1691.69 40.2903 1691.69 46.9338 L1691.69 72.576 L1684.19 72.576 L1684.19 45.4349 Q1684.19 38.8725 1681.88 35.7533 Q1679.58 32.5936 1674.76 32.5936 Q1669.04 32.5936 1665.68 36.4824 Q1662.32 40.3308 1662.32 46.9338 L1662.32 72.576 L1654.82 72.576 L1654.82 27.2059 L1662.32 27.2059 L1662.32 34.2544 Q1664.87 30.082 1668.44 28.0971 Q1672 26.1121 1676.9 26.1121 Q1681.84 26.1121 1685.29 28.6237 Q1688.77 31.1352 1690.43 35.9153 Z" fill="#000000" fill-rule="nonzero" fill-opacity="1"></path><circle clip-path="url(#clip252)" cx="307.043" cy="160.256" r="14.4" fill="#0000ff" fill-rule="evenodd" fill-opacity="1" stroke="#000000" stroke-opacity="1" stroke-width="3.2"></circle>
<circle clip-path="url(#clip252)" cx="307.043" cy="895.94" r="14.4" fill="#0000ff" fill-rule="evenodd" fill-opacity="1" stroke="#000000" stroke-opacity="1" stroke-width="3.2"></circle>
<circle clip-path="url(#clip252)" cx="1101.49" cy="405.484" r="14.4" fill="#008000" fill-rule="evenodd" fill-opacity="1" stroke="#000000" stroke-opacity="1" stroke-width="3.2"></circle>
<polyline clip-path="url(#clip252)" style="stroke:#000000; stroke-linecap:round; stroke-linejoin:round; stroke-width:8; stroke-opacity:1; fill:none" stroke-dasharray="32, 20" points="307.043,1386.4 2293.17,160.256 "></polyline>
<path clip-path="url(#clip250)" d="M1871.06 374.156 L2282.58 374.156 L2282.58 166.796 L1871.06 166.796  Z" fill="#ffffff" fill-rule="evenodd" fill-opacity="1"></path>
<polyline clip-path="url(#clip250)" style="stroke:#000000; stroke-linecap:round; stroke-linejoin:round; stroke-width:4; stroke-opacity:1; fill:none" points="1871.06,374.156 2282.58,374.156 2282.58,166.796 1871.06,166.796 1871.06,374.156 "></polyline>
<circle clip-path="url(#clip250)" cx="1964.62" cy="218.636" r="20.48" fill="#0000ff" fill-rule="evenodd" fill-opacity="1" stroke="#000000" stroke-opacity="1" stroke-width="4.55111"></circle>
<path clip-path="url(#clip250)" d="M2062.87 205.198 L2062.87 232.073 L2068.52 232.073 Q2075.67 232.073 2078.98 228.832 Q2082.31 225.592 2082.31 218.601 Q2082.31 211.657 2078.98 208.439 Q2075.67 205.198 2068.52 205.198 L2062.87 205.198 M2058.19 201.356 L2067.8 201.356 Q2077.85 201.356 2082.54 205.546 Q2087.24 209.712 2087.24 218.601 Q2087.24 227.536 2082.52 231.726 Q2077.8 235.916 2067.8 235.916 L2058.19 235.916 L2058.19 201.356 Z" fill="#000000" fill-rule="nonzero" fill-opacity="1"></path><path clip-path="url(#clip250)" d="M2094.51 209.99 L2098.77 209.99 L2098.77 235.916 L2094.51 235.916 L2094.51 209.99 M2094.51 199.897 L2098.77 199.897 L2098.77 205.291 L2094.51 205.291 L2094.51 199.897 Z" fill="#000000" fill-rule="nonzero" fill-opacity="1"></path><path clip-path="url(#clip250)" d="M2127.87 214.967 Q2129.47 212.096 2131.69 210.731 Q2133.91 209.365 2136.92 209.365 Q2140.97 209.365 2143.17 212.212 Q2145.37 215.036 2145.37 220.268 L2145.37 235.916 L2141.09 235.916 L2141.09 220.407 Q2141.09 216.68 2139.77 214.874 Q2138.45 213.069 2135.74 213.069 Q2132.43 213.069 2130.51 215.268 Q2128.59 217.467 2128.59 221.263 L2128.59 235.916 L2124.3 235.916 L2124.3 220.407 Q2124.3 216.657 2122.98 214.874 Q2121.66 213.069 2118.91 213.069 Q2115.65 213.069 2113.72 215.291 Q2111.8 217.49 2111.8 221.263 L2111.8 235.916 L2107.52 235.916 L2107.52 209.99 L2111.8 209.99 L2111.8 214.018 Q2113.26 211.633 2115.3 210.499 Q2117.34 209.365 2120.14 209.365 Q2122.96 209.365 2124.93 210.8 Q2126.92 212.235 2127.87 214.967 Z" fill="#000000" fill-rule="nonzero" fill-opacity="1"></path><path clip-path="url(#clip250)" d="M2179.53 204.434 Q2175.92 204.434 2174.1 207.999 Q2172.29 211.541 2172.29 218.67 Q2172.29 225.777 2174.1 229.342 Q2175.92 232.883 2179.53 232.883 Q2183.17 232.883 2184.97 229.342 Q2186.8 225.777 2186.8 218.67 Q2186.8 211.541 2184.97 207.999 Q2183.17 204.434 2179.53 204.434 M2179.53 200.731 Q2185.34 200.731 2188.4 205.337 Q2191.48 209.92 2191.48 218.67 Q2191.48 227.397 2188.4 232.004 Q2185.34 236.587 2179.53 236.587 Q2173.72 236.587 2170.65 232.004 Q2167.59 227.397 2167.59 218.67 Q2167.59 209.92 2170.65 205.337 Q2173.72 200.731 2179.53 200.731 Z" fill="#000000" fill-rule="nonzero" fill-opacity="1"></path><circle clip-path="url(#clip250)" cx="1964.62" cy="270.476" r="20.48" fill="#008000" fill-rule="evenodd" fill-opacity="1" stroke="#000000" stroke-opacity="1" stroke-width="4.55111"></circle>
<path clip-path="url(#clip250)" d="M2062.87 257.038 L2062.87 283.913 L2068.52 283.913 Q2075.67 283.913 2078.98 280.672 Q2082.31 277.432 2082.31 270.441 Q2082.31 263.497 2078.98 260.279 Q2075.67 257.038 2068.52 257.038 L2062.87 257.038 M2058.19 253.196 L2067.8 253.196 Q2077.85 253.196 2082.54 257.386 Q2087.24 261.552 2087.24 270.441 Q2087.24 279.376 2082.52 283.566 Q2077.8 287.756 2067.8 287.756 L2058.19 287.756 L2058.19 253.196 Z" fill="#000000" fill-rule="nonzero" fill-opacity="1"></path><path clip-path="url(#clip250)" d="M2094.51 261.83 L2098.77 261.83 L2098.77 287.756 L2094.51 287.756 L2094.51 261.83 M2094.51 251.737 L2098.77 251.737 L2098.77 257.131 L2094.51 257.131 L2094.51 251.737 Z" fill="#000000" fill-rule="nonzero" fill-opacity="1"></path><path clip-path="url(#clip250)" d="M2127.87 266.807 Q2129.47 263.936 2131.69 262.571 Q2133.91 261.205 2136.92 261.205 Q2140.97 261.205 2143.17 264.052 Q2145.37 266.876 2145.37 272.108 L2145.37 287.756 L2141.09 287.756 L2141.09 272.247 Q2141.09 268.52 2139.77 266.714 Q2138.45 264.909 2135.74 264.909 Q2132.43 264.909 2130.51 267.108 Q2128.59 269.307 2128.59 273.103 L2128.59 287.756 L2124.3 287.756 L2124.3 272.247 Q2124.3 268.497 2122.98 266.714 Q2121.66 264.909 2118.91 264.909 Q2115.65 264.909 2113.72 267.131 Q2111.8 269.33 2111.8 273.103 L2111.8 287.756 L2107.52 287.756 L2107.52 261.83 L2111.8 261.83 L2111.8 265.858 Q2113.26 263.473 2115.3 262.339 Q2117.34 261.205 2120.14 261.205 Q2122.96 261.205 2124.93 262.64 Q2126.92 264.075 2127.87 266.807 Z" fill="#000000" fill-rule="nonzero" fill-opacity="1"></path><path clip-path="url(#clip250)" d="M2170.35 283.821 L2177.98 283.821 L2177.98 257.455 L2169.67 259.122 L2169.67 254.862 L2177.94 253.196 L2182.61 253.196 L2182.61 283.821 L2190.25 283.821 L2190.25 287.756 L2170.35 287.756 L2170.35 283.821 Z" fill="#000000" fill-rule="nonzero" fill-opacity="1"></path><polyline clip-path="url(#clip250)" style="stroke:#000000; stroke-linecap:round; stroke-linejoin:round; stroke-width:8; stroke-opacity:1; fill:none" stroke-dasharray="32, 20" points="1894.45,322.316 2034.8,322.316 "></polyline>
<path clip-path="url(#clip250)" d="M2062.87 308.878 L2062.87 335.753 L2068.52 335.753 Q2075.67 335.753 2078.98 332.512 Q2082.31 329.272 2082.31 322.281 Q2082.31 315.337 2078.98 312.119 Q2075.67 308.878 2068.52 308.878 L2062.87 308.878 M2058.19 305.036 L2067.8 305.036 Q2077.85 305.036 2082.54 309.226 Q2087.24 313.392 2087.24 322.281 Q2087.24 331.216 2082.52 335.406 Q2077.8 339.596 2067.8 339.596 L2058.19 339.596 L2058.19 305.036 Z" fill="#000000" fill-rule="nonzero" fill-opacity="1"></path><path clip-path="url(#clip250)" d="M2094.51 313.67 L2098.77 313.67 L2098.77 339.596 L2094.51 339.596 L2094.51 313.67 M2094.51 303.577 L2098.77 303.577 L2098.77 308.971 L2094.51 308.971 L2094.51 303.577 Z" fill="#000000" fill-rule="nonzero" fill-opacity="1"></path><path clip-path="url(#clip250)" d="M2119.47 326.563 Q2114.3 326.563 2112.31 327.744 Q2110.32 328.924 2110.32 331.772 Q2110.32 334.04 2111.8 335.383 Q2113.31 336.702 2115.88 336.702 Q2119.42 336.702 2121.55 334.202 Q2123.7 331.679 2123.7 327.512 L2123.7 326.563 L2119.47 326.563 M2127.96 324.804 L2127.96 339.596 L2123.7 339.596 L2123.7 335.661 Q2122.24 338.022 2120.07 339.156 Q2117.89 340.267 2114.74 340.267 Q2110.76 340.267 2108.4 338.045 Q2106.06 335.799 2106.06 332.049 Q2106.06 327.674 2108.98 325.452 Q2111.92 323.23 2117.73 323.23 L2123.7 323.23 L2123.7 322.813 Q2123.7 319.874 2121.76 318.276 Q2119.84 316.656 2116.34 316.656 Q2114.12 316.656 2112.01 317.188 Q2109.91 317.721 2107.96 318.786 L2107.96 314.85 Q2110.3 313.948 2112.5 313.508 Q2114.7 313.045 2116.78 313.045 Q2122.41 313.045 2125.18 315.962 Q2127.96 318.878 2127.96 324.804 Z" fill="#000000" fill-rule="nonzero" fill-opacity="1"></path><path clip-path="url(#clip250)" d="M2153.79 326.332 Q2153.79 321.702 2151.87 319.156 Q2149.97 316.61 2146.53 316.61 Q2143.1 316.61 2141.18 319.156 Q2139.28 321.702 2139.28 326.332 Q2139.28 330.938 2141.18 333.485 Q2143.1 336.031 2146.53 336.031 Q2149.97 336.031 2151.87 333.485 Q2153.79 330.938 2153.79 326.332 M2158.05 336.378 Q2158.05 342.998 2155.11 346.216 Q2152.17 349.457 2146.11 349.457 Q2143.86 349.457 2141.87 349.11 Q2139.88 348.785 2138.01 348.091 L2138.01 343.948 Q2139.88 344.966 2141.71 345.452 Q2143.54 345.938 2145.44 345.938 Q2149.63 345.938 2151.71 343.739 Q2153.79 341.563 2153.79 337.142 L2153.79 335.036 Q2152.47 337.327 2150.41 338.461 Q2148.35 339.596 2145.48 339.596 Q2140.72 339.596 2137.8 335.961 Q2134.88 332.327 2134.88 326.332 Q2134.88 320.313 2137.8 316.679 Q2140.72 313.045 2145.48 313.045 Q2148.35 313.045 2150.41 314.179 Q2152.47 315.313 2153.79 317.605 L2153.79 313.67 L2158.05 313.67 L2158.05 336.378 Z" fill="#000000" fill-rule="nonzero" fill-opacity="1"></path><path clip-path="url(#clip250)" d="M2176.87 316.656 Q2173.45 316.656 2171.46 319.341 Q2169.47 322.003 2169.47 326.656 Q2169.47 331.309 2171.43 333.994 Q2173.42 336.656 2176.87 336.656 Q2180.28 336.656 2182.27 333.971 Q2184.26 331.286 2184.26 326.656 Q2184.26 322.05 2182.27 319.364 Q2180.28 316.656 2176.87 316.656 M2176.87 313.045 Q2182.43 313.045 2185.6 316.656 Q2188.77 320.267 2188.77 326.656 Q2188.77 333.022 2185.6 336.656 Q2182.43 340.267 2176.87 340.267 Q2171.29 340.267 2168.12 336.656 Q2164.97 333.022 2164.97 326.656 Q2164.97 320.267 2168.12 316.656 Q2171.29 313.045 2176.87 313.045 Z" fill="#000000" fill-rule="nonzero" fill-opacity="1"></path><path clip-path="url(#clip250)" d="M2217.38 323.948 L2217.38 339.596 L2213.12 339.596 L2213.12 324.087 Q2213.12 320.406 2211.69 318.577 Q2210.25 316.749 2207.38 316.749 Q2203.93 316.749 2201.94 318.948 Q2199.95 321.147 2199.95 324.943 L2199.95 339.596 L2195.67 339.596 L2195.67 313.67 L2199.95 313.67 L2199.95 317.698 Q2201.48 315.36 2203.54 314.202 Q2205.62 313.045 2208.33 313.045 Q2212.8 313.045 2215.09 315.823 Q2217.38 318.577 2217.38 323.948 Z" fill="#000000" fill-rule="nonzero" fill-opacity="1"></path><path clip-path="url(#clip250)" d="M2237.66 326.563 Q2232.5 326.563 2230.51 327.744 Q2228.52 328.924 2228.52 331.772 Q2228.52 334.04 2230 335.383 Q2231.5 336.702 2234.07 336.702 Q2237.61 336.702 2239.74 334.202 Q2241.9 331.679 2241.9 327.512 L2241.9 326.563 L2237.66 326.563 M2246.15 324.804 L2246.15 339.596 L2241.9 339.596 L2241.9 335.661 Q2240.44 338.022 2238.26 339.156 Q2236.09 340.267 2232.94 340.267 Q2228.96 340.267 2226.59 338.045 Q2224.26 335.799 2224.26 332.049 Q2224.26 327.674 2227.17 325.452 Q2230.11 323.23 2235.92 323.23 L2241.9 323.23 L2241.9 322.813 Q2241.9 319.874 2239.95 318.276 Q2238.03 316.656 2234.53 316.656 Q2232.31 316.656 2230.21 317.188 Q2228.1 317.721 2226.15 318.786 L2226.15 314.85 Q2228.49 313.948 2230.69 313.508 Q2232.89 313.045 2234.97 313.045 Q2240.6 313.045 2243.38 315.962 Q2246.15 318.878 2246.15 324.804 Z" fill="#000000" fill-rule="nonzero" fill-opacity="1"></path><path clip-path="url(#clip250)" d="M2254.93 303.577 L2259.19 303.577 L2259.19 339.596 L2254.93 339.596 L2254.93 303.577 Z" fill="#000000" fill-rule="nonzero" fill-opacity="1"></path></svg>