<svg xmlns="http://www.w3.org/2000/svg" xmlns:xlink="http://www.w3.org/1999/xlink" width="600" height="400" viewBox="0 0 2400 1600">
<defs>
  <clipPath id="clip150">
    <rect x="0" y="0" width="2400" height="1600"></rect>
  </clipPath>
</defs>
<path clip-path="url(#clip150)" d="M0 1600 L2400 1600 L2400 0 L0 0  Z" fill="#ffffff" fill-rule="evenodd" fill-opacity="1"></path>
<defs>
  <clipPath id="clip151">
    <rect x="480" y="0" width="1681" height="1600"></rect>
  </clipPath>
</defs>
<defs>
  <clipPath id="clip152">
    <rect x="185" y="47" width="2168" height="1440"></rect>
  </clipPath>
</defs>
<path clip-path="url(#clip152)" d="M-2867.74 3625.79 L-2867.74 2268.05 L-2083.85 1589.18 L-726.111 1981.12 L-726.111 3338.86 L-1510 4017.73 L-2867.74 3625.79  Z" fill="#ffffff" fill-rule="evenodd" fill-opacity="1"></path>
<polyline clip-path="url(#clip152)" style="stroke:#000000; stroke-linecap:round; stroke-linejoin:round; stroke-width:2; stroke-opacity:0.1; fill:none" points="722.175,1208.56 1137.64,848.76 1137.64,129.158 "></polyline>
<polyline clip-path="url(#clip152)" style="stroke:#000000; stroke-linecap:round; stroke-linejoin:round; stroke-width:2; stroke-opacity:0.1; fill:none" points="891.893,1257.55 1307.36,897.753 1307.36,178.151 "></polyline>
<polyline clip-path="url(#clip152)" style="stroke:#000000; stroke-linecap:round; stroke-linejoin:round; stroke-width:2; stroke-opacity:0.1; fill:none" points="1061.61,1306.55 1477.07,946.746 1477.07,227.145 "></polyline>
<polyline clip-path="url(#clip152)" style="stroke:#000000; stroke-linecap:round; stroke-linejoin:round; stroke-width:2; stroke-opacity:0.1; fill:none" points="1231.33,1355.54 1646.79,995.74 1646.79,276.138 "></polyline>
<polyline clip-path="url(#clip152)" style="stroke:#000000; stroke-linecap:round; stroke-linejoin:round; stroke-width:2; stroke-opacity:0.1; fill:none" points="1401.05,1404.53 1816.51,1044.73 1816.51,325.131 "></polyline>
<polyline clip-path="url(#clip152)" style="stroke:#000000; stroke-linecap:round; stroke-linejoin:round; stroke-width:2; stroke-opacity:0.1; fill:none" points="1433.17,1400.23 713.568,1192.5 713.568,472.897 "></polyline>
<polyline clip-path="url(#clip152)" style="stroke:#000000; stroke-linecap:round; stroke-linejoin:round; stroke-width:2; stroke-opacity:0.1; fill:none" points="1531.16,1315.37 811.554,1107.64 811.554,388.038 "></polyline>
<polyline clip-path="url(#clip152)" style="stroke:#000000; stroke-linecap:round; stroke-linejoin:round; stroke-width:2; stroke-opacity:0.1; fill:none" points="1629.14,1230.51 909.54,1022.78 909.54,303.179 "></polyline>
<polyline clip-path="url(#clip152)" style="stroke:#000000; stroke-linecap:round; stroke-linejoin:round; stroke-width:2; stroke-opacity:0.1; fill:none" points="1727.13,1145.65 1007.53,937.923 1007.53,218.321 "></polyline>
<polyline clip-path="url(#clip152)" style="stroke:#000000; stroke-linecap:round; stroke-linejoin:round; stroke-width:2; stroke-opacity:0.1; fill:none" points="1825.12,1060.8 1105.51,853.064 1105.51,133.462 "></polyline>
<polyline clip-path="url(#clip152)" style="stroke:#000000; stroke-linecap:round; stroke-linejoin:round; stroke-width:2; stroke-opacity:0.1; fill:none" points="701.809,1182.32 1117.27,822.515 1836.87,1030.25 "></polyline>
<polyline clip-path="url(#clip152)" style="stroke:#000000; stroke-linecap:round; stroke-linejoin:round; stroke-width:2; stroke-opacity:0.1; fill:none" points="701.809,1012.6 1117.27,652.797 1836.87,860.529 "></polyline>
<polyline clip-path="url(#clip152)" style="stroke:#000000; stroke-linecap:round; stroke-linejoin:round; stroke-width:2; stroke-opacity:0.1; fill:none" points="701.809,842.881 1117.27,483.08 1836.87,690.811 "></polyline>
<polyline clip-path="url(#clip152)" style="stroke:#000000; stroke-linecap:round; stroke-linejoin:round; stroke-width:2; stroke-opacity:0.1; fill:none" points="701.809,673.163 1117.27,313.362 1836.87,521.094 "></polyline>
<polyline clip-path="url(#clip152)" style="stroke:#000000; stroke-linecap:round; stroke-linejoin:round; stroke-width:2; stroke-opacity:0.1; fill:none" points="701.809,503.446 1117.27,143.645 1836.87,351.376 "></polyline>
<polyline clip-path="url(#clip150)" style="stroke:#000000; stroke-linecap:round; stroke-linejoin:round; stroke-width:4; stroke-opacity:1; fill:none" points="701.809,1202.68 1421.41,1410.41 "></polyline>
<polyline clip-path="url(#clip150)" style="stroke:#000000; stroke-linecap:round; stroke-linejoin:round; stroke-width:4; stroke-opacity:1; fill:none" points="722.175,1208.56 727.161,1204.24 "></polyline>
<polyline clip-path="url(#clip150)" style="stroke:#000000; stroke-linecap:round; stroke-linejoin:round; stroke-width:4; stroke-opacity:1; fill:none" points="891.893,1257.55 896.878,1253.24 "></polyline>
<polyline clip-path="url(#clip150)" style="stroke:#000000; stroke-linecap:round; stroke-linejoin:round; stroke-width:4; stroke-opacity:1; fill:none" points="1061.61,1306.55 1066.6,1302.23 "></polyline>
<polyline clip-path="url(#clip150)" style="stroke:#000000; stroke-linecap:round; stroke-linejoin:round; stroke-width:4; stroke-opacity:1; fill:none" points="1231.33,1355.54 1236.31,1351.22 "></polyline>
<polyline clip-path="url(#clip150)" style="stroke:#000000; stroke-linecap:round; stroke-linejoin:round; stroke-width:4; stroke-opacity:1; fill:none" points="1401.05,1404.53 1406.03,1400.22 "></polyline>
<path clip-path="url(#clip150)" d="M617.66 1249.58 L625.299 1249.58 L625.299 1223.21 L616.989 1224.88 L616.989 1220.62 L625.253 1218.95 L629.929 1218.95 L629.929 1249.58 L637.568 1249.58 L637.568 1253.51 L617.66 1253.51 L617.66 1249.58 Z" fill="#000000" fill-rule="nonzero" fill-opacity="1"></path><path clip-path="url(#clip150)" d="M647.012 1247.63 L651.896 1247.63 L651.896 1253.51 L647.012 1253.51 L647.012 1247.63 Z" fill="#000000" fill-rule="nonzero" fill-opacity="1"></path><path clip-path="url(#clip150)" d="M672.081 1222.03 Q668.47 1222.03 666.642 1225.59 Q664.836 1229.14 664.836 1236.27 Q664.836 1243.37 666.642 1246.94 Q668.47 1250.48 672.081 1250.48 Q675.716 1250.48 677.521 1246.94 Q679.35 1243.37 679.35 1236.27 Q679.35 1229.14 677.521 1225.59 Q675.716 1222.03 672.081 1222.03 M672.081 1218.33 Q677.892 1218.33 680.947 1222.93 Q684.026 1227.52 684.026 1236.27 Q684.026 1244.99 680.947 1249.6 Q677.892 1254.18 672.081 1254.18 Q666.271 1254.18 663.193 1249.6 Q660.137 1244.99 660.137 1236.27 Q660.137 1227.52 663.193 1222.93 Q666.271 1218.33 672.081 1218.33 Z" fill="#000000" fill-rule="nonzero" fill-opacity="1"></path><path clip-path="url(#clip150)" d="M702.243 1222.03 Q698.632 1222.03 696.803 1225.59 Q694.998 1229.14 694.998 1236.27 Q694.998 1243.37 696.803 1246.94 Q698.632 1250.48 702.243 1250.48 Q705.877 1250.48 707.683 1246.94 Q709.512 1243.37 709.512 1236.27 Q709.512 1229.14 707.683 1225.59 Q705.877 1222.03 702.243 1222.03 M702.243 1218.33 Q708.053 1218.33 711.109 1222.93 Q714.188 1227.52 714.188 1236.27 Q714.188 1244.99 711.109 1249.6 Q708.053 1254.18 702.243 1254.18 Q696.433 1254.18 693.354 1249.6 Q690.299 1244.99 690.299 1236.27 Q690.299 1227.52 693.354 1222.93 Q696.433 1218.33 702.243 1218.33 Z" fill="#000000" fill-rule="nonzero" fill-opacity="1"></path><path clip-path="url(#clip150)" d="M788.373 1298.57 L796.012 1298.57 L796.012 1272.2 L787.702 1273.87 L787.702 1269.61 L795.966 1267.94 L800.642 1267.94 L800.642 1298.57 L808.28 1298.57 L808.28 1302.5 L788.373 1302.5 L788.373 1298.57 Z" fill="#000000" fill-rule="nonzero" fill-opacity="1"></path><path clip-path="url(#clip150)" d="M817.725 1296.62 L822.609 1296.62 L822.609 1302.5 L817.725 1302.5 L817.725 1296.62 Z" fill="#000000" fill-rule="nonzero" fill-opacity="1"></path><path clip-path="url(#clip150)" d="M836.822 1298.57 L853.141 1298.57 L853.141 1302.5 L831.197 1302.5 L831.197 1298.57 Q833.859 1295.81 838.442 1291.18 Q843.049 1286.53 844.229 1285.19 Q846.475 1282.67 847.354 1280.93 Q848.257 1279.17 848.257 1277.48 Q848.257 1274.73 846.313 1272.99 Q844.391 1271.25 841.29 1271.25 Q839.09 1271.25 836.637 1272.02 Q834.206 1272.78 831.428 1274.33 L831.428 1269.61 Q834.253 1268.48 836.706 1267.9 Q839.16 1267.32 841.197 1267.32 Q846.567 1267.32 849.762 1270 Q852.956 1272.69 852.956 1277.18 Q852.956 1279.31 852.146 1281.23 Q851.359 1283.13 849.252 1285.72 Q848.674 1286.39 845.572 1289.61 Q842.47 1292.81 836.822 1298.57 Z" fill="#000000" fill-rule="nonzero" fill-opacity="1"></path><path clip-path="url(#clip150)" d="M863.002 1267.94 L881.359 1267.94 L881.359 1271.88 L867.285 1271.88 L867.285 1280.35 Q868.303 1280 869.322 1279.84 Q870.34 1279.66 871.359 1279.66 Q877.146 1279.66 880.525 1282.83 Q883.905 1286 883.905 1291.42 Q883.905 1297 880.433 1300.1 Q876.961 1303.18 870.641 1303.18 Q868.465 1303.18 866.197 1302.81 Q863.951 1302.43 861.544 1301.69 L861.544 1297 Q863.627 1298.13 865.85 1298.68 Q868.072 1299.24 870.549 1299.24 Q874.553 1299.24 876.891 1297.13 Q879.229 1295.03 879.229 1291.42 Q879.229 1287.81 876.891 1285.7 Q874.553 1283.59 870.549 1283.59 Q868.674 1283.59 866.799 1284.01 Q864.947 1284.43 863.002 1285.31 L863.002 1267.94 Z" fill="#000000" fill-rule="nonzero" fill-opacity="1"></path><path clip-path="url(#clip150)" d="M957.095 1347.56 L964.734 1347.56 L964.734 1321.2 L956.424 1322.86 L956.424 1318.6 L964.688 1316.94 L969.364 1316.94 L969.364 1347.56 L977.003 1347.56 L977.003 1351.5 L957.095 1351.5 L957.095 1347.56 Z" fill="#000000" fill-rule="nonzero" fill-opacity="1"></path><path clip-path="url(#clip150)" d="M986.447 1345.62 L991.331 1345.62 L991.331 1351.5 L986.447 1351.5 L986.447 1345.62 Z" fill="#000000" fill-rule="nonzero" fill-opacity="1"></path><path clip-path="url(#clip150)" d="M1001.56 1316.94 L1019.92 1316.94 L1019.92 1320.87 L1005.84 1320.87 L1005.84 1329.34 Q1006.86 1329 1007.88 1328.84 Q1008.9 1328.65 1009.92 1328.65 Q1015.71 1328.65 1019.09 1331.82 Q1022.47 1334.99 1022.47 1340.41 Q1022.47 1345.99 1018.99 1349.09 Q1015.52 1352.17 1009.2 1352.17 Q1007.03 1352.17 1004.76 1351.8 Q1002.51 1351.43 1000.1 1350.69 L1000.1 1345.99 Q1002.19 1347.12 1004.41 1347.68 Q1006.63 1348.23 1009.11 1348.23 Q1013.11 1348.23 1015.45 1346.13 Q1017.79 1344.02 1017.79 1340.41 Q1017.79 1336.8 1015.45 1334.69 Q1013.11 1332.59 1009.11 1332.59 Q1007.23 1332.59 1005.36 1333 Q1003.51 1333.42 1001.56 1334.3 L1001.56 1316.94 Z" fill="#000000" fill-rule="nonzero" fill-opacity="1"></path><path clip-path="url(#clip150)" d="M1041.68 1320.02 Q1038.07 1320.02 1036.24 1323.58 Q1034.43 1327.12 1034.43 1334.25 Q1034.43 1341.36 1036.24 1344.92 Q1038.07 1348.47 1041.68 1348.47 Q1045.31 1348.47 1047.12 1344.92 Q1048.95 1341.36 1048.95 1334.25 Q1048.95 1327.12 1047.12 1323.58 Q1045.31 1320.02 1041.68 1320.02 M1041.68 1316.31 Q1047.49 1316.31 1050.54 1320.92 Q1053.62 1325.5 1053.62 1334.25 Q1053.62 1342.98 1050.54 1347.59 Q1047.49 1352.17 1041.68 1352.17 Q1035.87 1352.17 1032.79 1347.59 Q1029.73 1342.98 1029.73 1334.25 Q1029.73 1325.5 1032.79 1320.92 Q1035.87 1316.31 1041.68 1316.31 Z" fill="#000000" fill-rule="nonzero" fill-opacity="1"></path><path clip-path="url(#clip150)" d="M1127.81 1396.56 L1135.45 1396.56 L1135.45 1370.19 L1127.14 1371.86 L1127.14 1367.6 L1135.4 1365.93 L1140.08 1365.93 L1140.08 1396.56 L1147.72 1396.56 L1147.72 1400.49 L1127.81 1400.49 L1127.81 1396.56 Z" fill="#000000" fill-rule="nonzero" fill-opacity="1"></path><path clip-path="url(#clip150)" d="M1157.16 1394.61 L1162.04 1394.61 L1162.04 1400.49 L1157.16 1400.49 L1157.16 1394.61 Z" fill="#000000" fill-rule="nonzero" fill-opacity="1"></path><path clip-path="url(#clip150)" d="M1171.05 1365.93 L1193.27 1365.93 L1193.27 1367.92 L1180.72 1400.49 L1175.84 1400.49 L1187.65 1369.87 L1171.05 1369.87 L1171.05 1365.93 Z" fill="#000000" fill-rule="nonzero" fill-opacity="1"></path><path clip-path="url(#clip150)" d="M1202.44 1365.93 L1220.79 1365.93 L1220.79 1369.87 L1206.72 1369.87 L1206.72 1378.34 Q1207.74 1377.99 1208.76 1377.83 Q1209.78 1377.64 1210.79 1377.64 Q1216.58 1377.64 1219.96 1380.81 Q1223.34 1383.99 1223.34 1389.4 Q1223.34 1394.98 1219.87 1398.08 Q1216.4 1401.16 1210.08 1401.16 Q1207.9 1401.16 1205.63 1400.79 Q1203.39 1400.42 1200.98 1399.68 L1200.98 1394.98 Q1203.06 1396.12 1205.28 1396.67 Q1207.51 1397.23 1209.98 1397.23 Q1213.99 1397.23 1216.33 1395.12 Q1218.66 1393.01 1218.66 1389.4 Q1218.66 1385.79 1216.33 1383.69 Q1213.99 1381.58 1209.98 1381.58 Q1208.11 1381.58 1206.23 1382 Q1204.38 1382.41 1202.44 1383.29 L1202.44 1365.93 Z" fill="#000000" fill-rule="nonzero" fill-opacity="1"></path><path clip-path="url(#clip150)" d="M1299.75 1445.55 L1316.07 1445.55 L1316.07 1449.48 L1294.12 1449.48 L1294.12 1445.55 Q1296.78 1442.79 1301.37 1438.16 Q1305.97 1433.51 1307.16 1432.17 Q1309.4 1429.65 1310.28 1427.91 Q1311.18 1426.15 1311.18 1424.46 Q1311.18 1421.71 1309.24 1419.97 Q1307.32 1418.23 1304.22 1418.23 Q1302.02 1418.23 1299.56 1419 Q1297.13 1419.76 1294.35 1421.31 L1294.35 1416.59 Q1297.18 1415.46 1299.63 1414.88 Q1302.09 1414.3 1304.12 1414.3 Q1309.49 1414.3 1312.69 1416.98 Q1315.88 1419.67 1315.88 1424.16 Q1315.88 1426.29 1315.07 1428.21 Q1314.28 1430.11 1312.18 1432.7 Q1311.6 1433.37 1308.5 1436.59 Q1305.4 1439.78 1299.75 1445.55 Z" fill="#000000" fill-rule="nonzero" fill-opacity="1"></path><path clip-path="url(#clip150)" d="M1325.88 1443.6 L1330.77 1443.6 L1330.77 1449.48 L1325.88 1449.48 L1325.88 1443.6 Z" fill="#000000" fill-rule="nonzero" fill-opacity="1"></path><path clip-path="url(#clip150)" d="M1350.95 1418 Q1347.34 1418 1345.51 1421.57 Q1343.71 1425.11 1343.71 1432.24 Q1343.71 1439.35 1345.51 1442.91 Q1347.34 1446.45 1350.95 1446.45 Q1354.59 1446.45 1356.39 1442.91 Q1358.22 1439.35 1358.22 1432.24 Q1358.22 1425.11 1356.39 1421.57 Q1354.59 1418 1350.95 1418 M1350.95 1414.3 Q1356.76 1414.3 1359.82 1418.91 Q1362.9 1423.49 1362.9 1432.24 Q1362.9 1440.97 1359.82 1445.57 Q1356.76 1450.16 1350.95 1450.16 Q1345.14 1450.16 1342.06 1445.57 Q1339.01 1440.97 1339.01 1432.24 Q1339.01 1423.49 1342.06 1418.91 Q1345.14 1414.3 1350.95 1414.3 Z" fill="#000000" fill-rule="nonzero" fill-opacity="1"></path><path clip-path="url(#clip150)" d="M1381.11 1418 Q1377.5 1418 1375.67 1421.57 Q1373.87 1425.11 1373.87 1432.24 Q1373.87 1439.35 1375.67 1442.91 Q1377.5 1446.45 1381.11 1446.45 Q1384.75 1446.45 1386.55 1442.91 Q1388.38 1439.35 1388.38 1432.24 Q1388.38 1425.11 1386.55 1421.57 Q1384.75 1418 1381.11 1418 M1381.11 1414.3 Q1386.92 1414.3 1389.98 1418.91 Q1393.06 1423.49 1393.06 1432.24 Q1393.06 1440.97 1389.98 1445.57 Q1386.92 1450.16 1381.11 1450.16 Q1375.3 1450.16 1372.22 1445.57 Q1369.17 1440.97 1369.17 1432.24 Q1369.17 1423.49 1372.22 1418.91 Q1375.3 1414.3 1381.11 1414.3 Z" fill="#000000" fill-rule="nonzero" fill-opacity="1"></path><polyline clip-path="url(#clip150)" style="stroke:#000000; stroke-linecap:round; stroke-linejoin:round; stroke-width:4; stroke-opacity:1; fill:none" points="1421.41,1410.41 1836.87,1050.61 "></polyline>
<polyline clip-path="url(#clip150)" style="stroke:#000000; stroke-linecap:round; stroke-linejoin:round; stroke-width:4; stroke-opacity:1; fill:none" points="1433.17,1400.23 1424.53,1397.74 "></polyline>
<polyline clip-path="url(#clip150)" style="stroke:#000000; stroke-linecap:round; stroke-linejoin:round; stroke-width:4; stroke-opacity:1; fill:none" points="1531.16,1315.37 1522.52,1312.88 "></polyline>
<polyline clip-path="url(#clip150)" style="stroke:#000000; stroke-linecap:round; stroke-linejoin:round; stroke-width:4; stroke-opacity:1; fill:none" points="1629.14,1230.51 1620.51,1228.02 "></polyline>
<polyline clip-path="url(#clip150)" style="stroke:#000000; stroke-linecap:round; stroke-linejoin:round; stroke-width:4; stroke-opacity:1; fill:none" points="1727.13,1145.65 1718.49,1143.16 "></polyline>
<polyline clip-path="url(#clip150)" style="stroke:#000000; stroke-linecap:round; stroke-linejoin:round; stroke-width:4; stroke-opacity:1; fill:none" points="1825.12,1060.8 1816.48,1058.3 "></polyline>
<path clip-path="url(#clip150)" d="M1452.69 1435.35 L1460.33 1435.35 L1460.33 1408.98 L1452.02 1410.65 L1452.02 1406.39 L1460.29 1404.72 L1464.96 1404.72 L1464.96 1435.35 L1472.6 1435.35 L1472.6 1439.28 L1452.69 1439.28 L1452.69 1435.35 Z" fill="#000000" fill-rule="nonzero" fill-opacity="1"></path><path clip-path="url(#clip150)" d="M1482.05 1433.4 L1486.93 1433.4 L1486.93 1439.28 L1482.05 1439.28 L1482.05 1433.4 Z" fill="#000000" fill-rule="nonzero" fill-opacity="1"></path><path clip-path="url(#clip150)" d="M1507.12 1407.8 Q1503.5 1407.8 1501.68 1411.36 Q1499.87 1414.91 1499.87 1422.04 Q1499.87 1429.14 1501.68 1432.71 Q1503.5 1436.25 1507.12 1436.25 Q1510.75 1436.25 1512.56 1432.71 Q1514.38 1429.14 1514.38 1422.04 Q1514.38 1414.91 1512.56 1411.36 Q1510.75 1407.8 1507.12 1407.8 M1507.12 1404.1 Q1512.93 1404.1 1515.98 1408.7 Q1519.06 1413.29 1519.06 1422.04 Q1519.06 1430.76 1515.98 1435.37 Q1512.93 1439.95 1507.12 1439.95 Q1501.31 1439.95 1498.23 1435.37 Q1495.17 1430.76 1495.17 1422.04 Q1495.17 1413.29 1498.23 1408.7 Q1501.31 1404.1 1507.12 1404.1 Z" fill="#000000" fill-rule="nonzero" fill-opacity="1"></path><path clip-path="url(#clip150)" d="M1537.28 1407.8 Q1533.67 1407.8 1531.84 1411.36 Q1530.03 1414.91 1530.03 1422.04 Q1530.03 1429.14 1531.84 1432.71 Q1533.67 1436.25 1537.28 1436.25 Q1540.91 1436.25 1542.72 1432.71 Q1544.55 1429.14 1544.55 1422.04 Q1544.55 1414.91 1542.72 1411.36 Q1540.91 1407.8 1537.28 1407.8 M1537.28 1404.1 Q1543.09 1404.1 1546.14 1408.7 Q1549.22 1413.29 1549.22 1422.04 Q1549.22 1430.76 1546.14 1435.37 Q1543.09 1439.95 1537.28 1439.95 Q1531.47 1439.95 1528.39 1435.37 Q1525.33 1430.76 1525.33 1422.04 Q1525.33 1413.29 1528.39 1408.7 Q1531.47 1404.1 1537.28 1404.1 Z" fill="#000000" fill-rule="nonzero" fill-opacity="1"></path><path clip-path="url(#clip150)" d="M1550.68 1350.49 L1558.32 1350.49 L1558.32 1324.12 L1550.01 1325.79 L1550.01 1321.53 L1558.27 1319.86 L1562.95 1319.86 L1562.95 1350.49 L1570.59 1350.49 L1570.59 1354.42 L1550.68 1354.42 L1550.68 1350.49 Z" fill="#000000" fill-rule="nonzero" fill-opacity="1"></path><path clip-path="url(#clip150)" d="M1580.03 1348.54 L1584.92 1348.54 L1584.92 1354.42 L1580.03 1354.42 L1580.03 1348.54 Z" fill="#000000" fill-rule="nonzero" fill-opacity="1"></path><path clip-path="url(#clip150)" d="M1599.13 1350.49 L1615.45 1350.49 L1615.45 1354.42 L1593.51 1354.42 L1593.51 1350.49 Q1596.17 1347.73 1600.75 1343.1 Q1605.36 1338.45 1606.54 1337.11 Q1608.78 1334.58 1609.66 1332.85 Q1610.57 1331.09 1610.57 1329.4 Q1610.57 1326.64 1608.62 1324.91 Q1606.7 1323.17 1603.6 1323.17 Q1601.4 1323.17 1598.94 1323.94 Q1596.51 1324.7 1593.74 1326.25 L1593.74 1321.53 Q1596.56 1320.39 1599.01 1319.82 Q1601.47 1319.24 1603.5 1319.24 Q1608.88 1319.24 1612.07 1321.92 Q1615.26 1324.61 1615.26 1329.1 Q1615.26 1331.23 1614.45 1333.15 Q1613.67 1335.05 1611.56 1337.64 Q1610.98 1338.31 1607.88 1341.53 Q1604.78 1344.72 1599.13 1350.49 Z" fill="#000000" fill-rule="nonzero" fill-opacity="1"></path><path clip-path="url(#clip150)" d="M1625.31 1319.86 L1643.67 1319.86 L1643.67 1323.8 L1629.59 1323.8 L1629.59 1332.27 Q1630.61 1331.92 1631.63 1331.76 Q1632.65 1331.57 1633.67 1331.57 Q1639.45 1331.57 1642.83 1334.75 Q1646.21 1337.92 1646.21 1343.33 Q1646.21 1348.91 1642.74 1352.01 Q1639.27 1355.09 1632.95 1355.09 Q1630.77 1355.09 1628.5 1354.72 Q1626.26 1354.35 1623.85 1353.61 L1623.85 1348.91 Q1625.94 1350.05 1628.16 1350.6 Q1630.38 1351.16 1632.86 1351.16 Q1636.86 1351.16 1639.2 1349.05 Q1641.54 1346.95 1641.54 1343.33 Q1641.54 1339.72 1639.2 1337.62 Q1636.86 1335.51 1632.86 1335.51 Q1630.98 1335.51 1629.11 1335.93 Q1627.25 1336.34 1625.31 1337.22 L1625.31 1319.86 Z" fill="#000000" fill-rule="nonzero" fill-opacity="1"></path><path clip-path="url(#clip150)" d="M1648.67 1265.63 L1656.31 1265.63 L1656.31 1239.26 L1648 1240.93 L1648 1236.67 L1656.26 1235 L1660.94 1235 L1660.94 1265.63 L1668.57 1265.63 L1668.57 1269.56 L1648.67 1269.56 L1648.67 1265.63 Z" fill="#000000" fill-rule="nonzero" fill-opacity="1"></path><path clip-path="url(#clip150)" d="M1678.02 1263.68 L1682.9 1263.68 L1682.9 1269.56 L1678.02 1269.56 L1678.02 1263.68 Z" fill="#000000" fill-rule="nonzero" fill-opacity="1"></path><path clip-path="url(#clip150)" d="M1693.13 1235 L1711.49 1235 L1711.49 1238.94 L1697.42 1238.94 L1697.42 1247.41 Q1698.44 1247.06 1699.45 1246.9 Q1700.47 1246.72 1701.49 1246.72 Q1707.28 1246.72 1710.66 1249.89 Q1714.04 1253.06 1714.04 1258.48 Q1714.04 1264.05 1710.57 1267.16 Q1707.09 1270.23 1700.77 1270.23 Q1698.6 1270.23 1696.33 1269.86 Q1694.08 1269.49 1691.68 1268.75 L1691.68 1264.05 Q1693.76 1265.19 1695.98 1265.74 Q1698.2 1266.3 1700.68 1266.3 Q1704.69 1266.3 1707.02 1264.19 Q1709.36 1262.09 1709.36 1258.48 Q1709.36 1254.86 1707.02 1252.76 Q1704.69 1250.65 1700.68 1250.65 Q1698.81 1250.65 1696.93 1251.07 Q1695.08 1251.48 1693.13 1252.36 L1693.13 1235 Z" fill="#000000" fill-rule="nonzero" fill-opacity="1"></path><path clip-path="url(#clip150)" d="M1733.25 1238.08 Q1729.64 1238.08 1727.81 1241.65 Q1726.01 1245.19 1726.01 1252.32 Q1726.01 1259.42 1727.81 1262.99 Q1729.64 1266.53 1733.25 1266.53 Q1736.88 1266.53 1738.69 1262.99 Q1740.52 1259.42 1740.52 1252.32 Q1740.52 1245.19 1738.69 1241.65 Q1736.88 1238.08 1733.25 1238.08 M1733.25 1234.38 Q1739.06 1234.38 1742.12 1238.98 Q1745.19 1243.57 1745.19 1252.32 Q1745.19 1261.04 1742.12 1265.65 Q1739.06 1270.23 1733.25 1270.23 Q1727.44 1270.23 1724.36 1265.65 Q1721.31 1261.04 1721.31 1252.32 Q1721.31 1243.57 1724.36 1238.98 Q1727.44 1234.38 1733.25 1234.38 Z" fill="#000000" fill-rule="nonzero" fill-opacity="1"></path><path clip-path="url(#clip150)" d="M1746.65 1180.77 L1754.29 1180.77 L1754.29 1154.4 L1745.98 1156.07 L1745.98 1151.81 L1754.25 1150.14 L1758.92 1150.14 L1758.92 1180.77 L1766.56 1180.77 L1766.56 1184.7 L1746.65 1184.7 L1746.65 1180.77 Z" fill="#000000" fill-rule="nonzero" fill-opacity="1"></path><path clip-path="url(#clip150)" d="M1776.01 1178.82 L1780.89 1178.82 L1780.89 1184.7 L1776.01 1184.7 L1776.01 1178.82 Z" fill="#000000" fill-rule="nonzero" fill-opacity="1"></path><path clip-path="url(#clip150)" d="M1789.89 1150.14 L1812.12 1150.14 L1812.12 1152.14 L1799.57 1184.7 L1794.69 1184.7 L1806.49 1154.08 L1789.89 1154.08 L1789.89 1150.14 Z" fill="#000000" fill-rule="nonzero" fill-opacity="1"></path><path clip-path="url(#clip150)" d="M1821.28 1150.14 L1839.64 1150.14 L1839.64 1154.08 L1825.57 1154.08 L1825.57 1162.55 Q1826.58 1162.2 1827.6 1162.04 Q1828.62 1161.86 1829.64 1161.86 Q1835.43 1161.86 1838.81 1165.03 Q1842.19 1168.2 1842.19 1173.62 Q1842.19 1179.2 1838.71 1182.3 Q1835.24 1185.38 1828.92 1185.38 Q1826.75 1185.38 1824.48 1185.01 Q1822.23 1184.64 1819.82 1183.89 L1819.82 1179.2 Q1821.91 1180.33 1824.13 1180.89 Q1826.35 1181.44 1828.83 1181.44 Q1832.83 1181.44 1835.17 1179.33 Q1837.51 1177.23 1837.51 1173.62 Q1837.51 1170.01 1835.17 1167.9 Q1832.83 1165.79 1828.83 1165.79 Q1826.95 1165.79 1825.08 1166.21 Q1823.23 1166.63 1821.28 1167.51 L1821.28 1150.14 Z" fill="#000000" fill-rule="nonzero" fill-opacity="1"></path><path clip-path="url(#clip150)" d="M1849.59 1095.91 L1865.91 1095.91 L1865.91 1099.85 L1843.97 1099.85 L1843.97 1095.91 Q1846.63 1093.16 1851.21 1088.53 Q1855.82 1083.87 1857 1082.53 Q1859.25 1080.01 1860.13 1078.27 Q1861.03 1076.51 1861.03 1074.82 Q1861.03 1072.07 1859.08 1070.33 Q1857.16 1068.6 1854.06 1068.6 Q1851.86 1068.6 1849.41 1069.36 Q1846.98 1070.12 1844.2 1071.67 L1844.2 1066.95 Q1847.02 1065.82 1849.48 1065.24 Q1851.93 1064.66 1853.97 1064.66 Q1859.34 1064.66 1862.53 1067.35 Q1865.73 1070.03 1865.73 1074.52 Q1865.73 1076.65 1864.92 1078.57 Q1864.13 1080.47 1862.02 1083.06 Q1861.45 1083.73 1858.34 1086.95 Q1855.24 1090.15 1849.59 1095.91 Z" fill="#000000" fill-rule="nonzero" fill-opacity="1"></path><path clip-path="url(#clip150)" d="M1875.73 1093.97 L1880.61 1093.97 L1880.61 1099.85 L1875.73 1099.85 L1875.73 1093.97 Z" fill="#000000" fill-rule="nonzero" fill-opacity="1"></path><path clip-path="url(#clip150)" d="M1900.8 1068.36 Q1897.19 1068.36 1895.36 1071.93 Q1893.55 1075.47 1893.55 1082.6 Q1893.55 1089.71 1895.36 1093.27 Q1897.19 1096.81 1900.8 1096.81 Q1904.43 1096.81 1906.24 1093.27 Q1908.07 1089.71 1908.07 1082.6 Q1908.07 1075.47 1906.24 1071.93 Q1904.43 1068.36 1900.8 1068.36 M1900.8 1064.66 Q1906.61 1064.66 1909.66 1069.27 Q1912.74 1073.85 1912.74 1082.6 Q1912.74 1091.33 1909.66 1095.93 Q1906.61 1100.52 1900.8 1100.52 Q1894.99 1100.52 1891.91 1095.93 Q1888.85 1091.33 1888.85 1082.6 Q1888.85 1073.85 1891.91 1069.27 Q1894.99 1064.66 1900.8 1064.66 Z" fill="#000000" fill-rule="nonzero" fill-opacity="1"></path><path clip-path="url(#clip150)" d="M1930.96 1068.36 Q1927.35 1068.36 1925.52 1071.93 Q1923.71 1075.47 1923.71 1082.6 Q1923.71 1089.71 1925.52 1093.27 Q1927.35 1096.81 1930.96 1096.81 Q1934.59 1096.81 1936.4 1093.27 Q1938.23 1089.71 1938.23 1082.6 Q1938.23 1075.47 1936.4 1071.93 Q1934.59 1068.36 1930.96 1068.36 M1930.96 1064.66 Q1936.77 1064.66 1939.83 1069.27 Q1942.9 1073.85 1942.9 1082.6 Q1942.9 1091.33 1939.83 1095.93 Q1936.77 1100.52 1930.96 1100.52 Q1925.15 1100.52 1922.07 1095.93 Q1919.02 1091.33 1919.02 1082.6 Q1919.02 1073.85 1922.07 1069.27 Q1925.15 1064.66 1930.96 1064.66 Z" fill="#000000" fill-rule="nonzero" fill-opacity="1"></path><polyline clip-path="url(#clip150)" style="stroke:#000000; stroke-linecap:round; stroke-linejoin:round; stroke-width:4; stroke-opacity:1; fill:none" points="701.809,1202.68 701.809,483.08 "></polyline>
<polyline clip-path="url(#clip150)" style="stroke:#000000; stroke-linecap:round; stroke-linejoin:round; stroke-width:4; stroke-opacity:1; fill:none" points="701.809,1182.32 706.795,1178 "></polyline>
<polyline clip-path="url(#clip150)" style="stroke:#000000; stroke-linecap:round; stroke-linejoin:round; stroke-width:4; stroke-opacity:1; fill:none" points="701.809,1012.6 706.795,1008.28 "></polyline>
<polyline clip-path="url(#clip150)" style="stroke:#000000; stroke-linecap:round; stroke-linejoin:round; stroke-width:4; stroke-opacity:1; fill:none" points="701.809,842.881 706.795,838.563 "></polyline>
<polyline clip-path="url(#clip150)" style="stroke:#000000; stroke-linecap:round; stroke-linejoin:round; stroke-width:4; stroke-opacity:1; fill:none" points="701.809,673.163 706.795,668.846 "></polyline>
<polyline clip-path="url(#clip150)" style="stroke:#000000; stroke-linecap:round; stroke-linejoin:round; stroke-width:4; stroke-opacity:1; fill:none" points="701.809,503.446 706.795,499.128 "></polyline>
<path clip-path="url(#clip150)" d="M576.482 1195.66 L584.121 1195.66 L584.121 1169.29 L575.811 1170.96 L575.811 1166.7 L584.075 1165.04 L588.75 1165.04 L588.75 1195.66 L596.389 1195.66 L596.389 1199.6 L576.482 1199.6 L576.482 1195.66 Z" fill="#000000" fill-rule="nonzero" fill-opacity="1"></path><path clip-path="url(#clip150)" d="M605.834 1193.72 L610.718 1193.72 L610.718 1199.6 L605.834 1199.6 L605.834 1193.72 Z" fill="#000000" fill-rule="nonzero" fill-opacity="1"></path><path clip-path="url(#clip150)" d="M630.903 1168.11 Q627.292 1168.11 625.463 1171.68 Q623.658 1175.22 623.658 1182.35 Q623.658 1189.46 625.463 1193.02 Q627.292 1196.56 630.903 1196.56 Q634.537 1196.56 636.343 1193.02 Q638.171 1189.46 638.171 1182.35 Q638.171 1175.22 636.343 1171.68 Q634.537 1168.11 630.903 1168.11 M630.903 1164.41 Q636.713 1164.41 639.769 1169.02 Q642.847 1173.6 642.847 1182.35 Q642.847 1191.08 639.769 1195.68 Q636.713 1200.27 630.903 1200.27 Q625.093 1200.27 622.014 1195.68 Q618.959 1191.08 618.959 1182.35 Q618.959 1173.6 622.014 1169.02 Q625.093 1164.41 630.903 1164.41 Z" fill="#000000" fill-rule="nonzero" fill-opacity="1"></path><path clip-path="url(#clip150)" d="M661.065 1168.11 Q657.454 1168.11 655.625 1171.68 Q653.82 1175.22 653.82 1182.35 Q653.82 1189.46 655.625 1193.02 Q657.454 1196.56 661.065 1196.56 Q664.699 1196.56 666.505 1193.02 Q668.333 1189.46 668.333 1182.35 Q668.333 1175.22 666.505 1171.68 Q664.699 1168.11 661.065 1168.11 M661.065 1164.41 Q666.875 1164.41 669.931 1169.02 Q673.009 1173.6 673.009 1182.35 Q673.009 1191.08 669.931 1195.68 Q666.875 1200.27 661.065 1200.27 Q655.255 1200.27 652.176 1195.68 Q649.12 1191.08 649.12 1182.35 Q649.12 1173.6 652.176 1169.02 Q655.255 1164.41 661.065 1164.41 Z" fill="#000000" fill-rule="nonzero" fill-opacity="1"></path><path clip-path="url(#clip150)" d="M577.477 1025.94 L585.116 1025.94 L585.116 999.578 L576.806 1001.24 L576.806 996.985 L585.07 995.318 L589.746 995.318 L589.746 1025.94 L597.385 1025.94 L597.385 1029.88 L577.477 1029.88 L577.477 1025.94 Z" fill="#000000" fill-rule="nonzero" fill-opacity="1"></path><path clip-path="url(#clip150)" d="M606.829 1024 L611.713 1024 L611.713 1029.88 L606.829 1029.88 L606.829 1024 Z" fill="#000000" fill-rule="nonzero" fill-opacity="1"></path><path clip-path="url(#clip150)" d="M625.926 1025.94 L642.246 1025.94 L642.246 1029.88 L620.301 1029.88 L620.301 1025.94 Q622.963 1023.19 627.547 1018.56 Q632.153 1013.91 633.334 1012.56 Q635.579 1010.04 636.458 1008.3 Q637.361 1006.55 637.361 1004.86 Q637.361 1002.1 635.417 1000.36 Q633.496 998.628 630.394 998.628 Q628.195 998.628 625.741 999.392 Q623.31 1000.16 620.533 1001.71 L620.533 996.985 Q623.357 995.851 625.81 995.272 Q628.264 994.693 630.301 994.693 Q635.671 994.693 638.866 997.378 Q642.06 1000.06 642.06 1004.55 Q642.06 1006.68 641.25 1008.61 Q640.463 1010.5 638.357 1013.1 Q637.778 1013.77 634.676 1016.98 Q631.574 1020.18 625.926 1025.94 Z" fill="#000000" fill-rule="nonzero" fill-opacity="1"></path><path clip-path="url(#clip150)" d="M652.107 995.318 L670.463 995.318 L670.463 999.253 L656.389 999.253 L656.389 1007.73 Q657.407 1007.38 658.426 1007.22 Q659.444 1007.03 660.463 1007.03 Q666.25 1007.03 669.63 1010.2 Q673.009 1013.37 673.009 1018.79 Q673.009 1024.37 669.537 1027.47 Q666.065 1030.55 659.745 1030.55 Q657.569 1030.55 655.301 1030.18 Q653.056 1029.81 650.648 1029.07 L650.648 1024.37 Q652.732 1025.5 654.954 1026.06 Q657.176 1026.61 659.653 1026.61 Q663.657 1026.61 665.995 1024.51 Q668.333 1022.4 668.333 1018.79 Q668.333 1015.18 665.995 1013.07 Q663.657 1010.97 659.653 1010.97 Q657.778 1010.97 655.903 1011.38 Q654.051 1011.8 652.107 1012.68 L652.107 995.318 Z" fill="#000000" fill-rule="nonzero" fill-opacity="1"></path><path clip-path="url(#clip150)" d="M576.482 856.226 L584.121 856.226 L584.121 829.86 L575.811 831.527 L575.811 827.268 L584.075 825.601 L588.75 825.601 L588.75 856.226 L596.389 856.226 L596.389 860.161 L576.482 860.161 L576.482 856.226 Z" fill="#000000" fill-rule="nonzero" fill-opacity="1"></path><path clip-path="url(#clip150)" d="M605.834 854.281 L610.718 854.281 L610.718 860.161 L605.834 860.161 L605.834 854.281 Z" fill="#000000" fill-rule="nonzero" fill-opacity="1"></path><path clip-path="url(#clip150)" d="M620.949 825.601 L639.306 825.601 L639.306 829.536 L625.232 829.536 L625.232 838.008 Q626.25 837.661 627.269 837.499 Q628.287 837.314 629.306 837.314 Q635.093 837.314 638.472 840.485 Q641.852 843.656 641.852 849.073 Q641.852 854.652 638.38 857.753 Q634.908 860.832 628.588 860.832 Q626.412 860.832 624.144 860.462 Q621.898 860.091 619.491 859.351 L619.491 854.652 Q621.574 855.786 623.797 856.341 Q626.019 856.897 628.496 856.897 Q632.5 856.897 634.838 854.791 Q637.176 852.684 637.176 849.073 Q637.176 845.462 634.838 843.355 Q632.5 841.249 628.496 841.249 Q626.621 841.249 624.746 841.666 Q622.894 842.082 620.949 842.962 L620.949 825.601 Z" fill="#000000" fill-rule="nonzero" fill-opacity="1"></path><path clip-path="url(#clip150)" d="M661.065 828.68 Q657.454 828.68 655.625 832.244 Q653.82 835.786 653.82 842.916 Q653.82 850.022 655.625 853.587 Q657.454 857.128 661.065 857.128 Q664.699 857.128 666.505 853.587 Q668.333 850.022 668.333 842.916 Q668.333 835.786 666.505 832.244 Q664.699 828.68 661.065 828.68 M661.065 824.976 Q666.875 824.976 669.931 829.582 Q673.009 834.166 673.009 842.916 Q673.009 851.642 669.931 856.249 Q666.875 860.832 661.065 860.832 Q655.255 860.832 652.176 856.249 Q649.12 851.642 649.12 842.916 Q649.12 834.166 652.176 829.582 Q655.255 824.976 661.065 824.976 Z" fill="#000000" fill-rule="nonzero" fill-opacity="1"></path><path clip-path="url(#clip150)" d="M577.477 686.508 L585.116 686.508 L585.116 660.143 L576.806 661.809 L576.806 657.55 L585.07 655.883 L589.746 655.883 L589.746 686.508 L597.385 686.508 L597.385 690.443 L577.477 690.443 L577.477 686.508 Z" fill="#000000" fill-rule="nonzero" fill-opacity="1"></path><path clip-path="url(#clip150)" d="M606.829 684.564 L611.713 684.564 L611.713 690.443 L606.829 690.443 L606.829 684.564 Z" fill="#000000" fill-rule="nonzero" fill-opacity="1"></path><path clip-path="url(#clip150)" d="M620.718 655.883 L642.94 655.883 L642.94 657.874 L630.394 690.443 L625.509 690.443 L637.315 659.819 L620.718 659.819 L620.718 655.883 Z" fill="#000000" fill-rule="nonzero" fill-opacity="1"></path><path clip-path="url(#clip150)" d="M652.107 655.883 L670.463 655.883 L670.463 659.819 L656.389 659.819 L656.389 668.291 Q657.407 667.944 658.426 667.782 Q659.444 667.596 660.463 667.596 Q666.25 667.596 669.63 670.768 Q673.009 673.939 673.009 679.356 Q673.009 684.934 669.537 688.036 Q666.065 691.115 659.745 691.115 Q657.569 691.115 655.301 690.744 Q653.056 690.374 650.648 689.633 L650.648 684.934 Q652.732 686.068 654.954 686.624 Q657.176 687.18 659.653 687.18 Q663.657 687.18 665.995 685.073 Q668.333 682.967 668.333 679.356 Q668.333 675.744 665.995 673.638 Q663.657 671.532 659.653 671.532 Q657.778 671.532 655.903 671.948 Q654.051 672.365 652.107 673.244 L652.107 655.883 Z" fill="#000000" fill-rule="nonzero" fill-opacity="1"></path><path clip-path="url(#clip150)" d="M579.7 516.791 L596.019 516.791 L596.019 520.726 L574.075 520.726 L574.075 516.791 Q576.737 514.036 581.32 509.407 Q585.926 504.754 587.107 503.411 Q589.352 500.888 590.232 499.152 Q591.135 497.393 591.135 495.703 Q591.135 492.948 589.19 491.212 Q587.269 489.476 584.167 489.476 Q581.968 489.476 579.514 490.24 Q577.084 491.004 574.306 492.555 L574.306 487.833 Q577.13 486.698 579.584 486.12 Q582.037 485.541 584.075 485.541 Q589.445 485.541 592.639 488.226 Q595.834 490.911 595.834 495.402 Q595.834 497.532 595.024 499.453 Q594.236 501.351 592.13 503.944 Q591.551 504.615 588.449 507.833 Q585.348 511.027 579.7 516.791 Z" fill="#000000" fill-rule="nonzero" fill-opacity="1"></path><path clip-path="url(#clip150)" d="M605.834 514.846 L610.718 514.846 L610.718 520.726 L605.834 520.726 L605.834 514.846 Z" fill="#000000" fill-rule="nonzero" fill-opacity="1"></path><path clip-path="url(#clip150)" d="M630.903 489.245 Q627.292 489.245 625.463 492.809 Q623.658 496.351 623.658 503.481 Q623.658 510.587 625.463 514.152 Q627.292 517.694 630.903 517.694 Q634.537 517.694 636.343 514.152 Q638.171 510.587 638.171 503.481 Q638.171 496.351 636.343 492.809 Q634.537 489.245 630.903 489.245 M630.903 485.541 Q636.713 485.541 639.769 490.147 Q642.847 494.731 642.847 503.481 Q642.847 512.208 639.769 516.814 Q636.713 521.397 630.903 521.397 Q625.093 521.397 622.014 516.814 Q618.959 512.208 618.959 503.481 Q618.959 494.731 622.014 490.147 Q625.093 485.541 630.903 485.541 Z" fill="#000000" fill-rule="nonzero" fill-opacity="1"></path><path clip-path="url(#clip150)" d="M661.065 489.245 Q657.454 489.245 655.625 492.809 Q653.82 496.351 653.82 503.481 Q653.82 510.587 655.625 514.152 Q657.454 517.694 661.065 517.694 Q664.699 517.694 666.505 514.152 Q668.333 510.587 668.333 503.481 Q668.333 496.351 666.505 492.809 Q664.699 489.245 661.065 489.245 M661.065 485.541 Q666.875 485.541 669.931 490.147 Q673.009 494.731 673.009 503.481 Q673.009 512.208 669.931 516.814 Q666.875 521.397 661.065 521.397 Q655.255 521.397 652.176 516.814 Q649.12 512.208 649.12 503.481 Q649.12 494.731 652.176 490.147 Q655.255 485.541 661.065 485.541 Z" fill="#000000" fill-rule="nonzero" fill-opacity="1"></path><polyline clip-path="url(#clip152)" style="stroke:#0000ff; stroke-linecap:round; stroke-linejoin:round; stroke-width:8; stroke-opacity:1; fill:none" points="733.934,1178.01 1412.8,1373.98 "></polyline>
<polyline clip-path="url(#clip152)" style="stroke:#0000ff; stroke-linecap:round; stroke-linejoin:round; stroke-width:8; stroke-opacity:1; fill:none" points="733.934,1178.01 1125.88,838.577 "></polyline>
<polyline clip-path="url(#clip152)" style="stroke:#0000ff; stroke-linecap:round; stroke-linejoin:round; stroke-width:8; stroke-opacity:1; fill:none" points="733.934,1178.01 733.934,499.142 "></polyline>
<polyline clip-path="url(#clip152)" style="stroke:#0000ff; stroke-linecap:round; stroke-linejoin:round; stroke-width:8; stroke-opacity:1; fill:none" points="1412.8,1373.98 1804.75,1034.55 "></polyline>
<polyline clip-path="url(#clip152)" style="stroke:#0000ff; stroke-linecap:round; stroke-linejoin:round; stroke-width:8; stroke-opacity:1; fill:none" points="1412.8,1373.98 1412.8,695.115 "></polyline>
<polyline clip-path="url(#clip152)" style="stroke:#0000ff; stroke-linecap:round; stroke-linejoin:round; stroke-width:8; stroke-opacity:1; fill:none" points="1125.88,838.577 1804.75,1034.55 "></polyline>
<polyline clip-path="url(#clip152)" style="stroke:#0000ff; stroke-linecap:round; stroke-linejoin:round; stroke-width:8; stroke-opacity:1; fill:none" points="1125.88,838.577 1125.88,159.707 "></polyline>
<polyline clip-path="url(#clip152)" style="stroke:#0000ff; stroke-linecap:round; stroke-linejoin:round; stroke-width:8; stroke-opacity:1; fill:none" points="1804.75,1034.55 1804.75,355.68 "></polyline>
<polyline clip-path="url(#clip152)" style="stroke:#0000ff; stroke-linecap:round; stroke-linejoin:round; stroke-width:8; stroke-opacity:1; fill:none" points="733.934,499.142 1412.8,695.115 "></polyline>
<polyline clip-path="url(#clip152)" style="stroke:#0000ff; stroke-linecap:round; stroke-linejoin:round; stroke-width:8; stroke-opacity:1; fill:none" points="733.934,499.142 1125.88,159.707 "></polyline>
<polyline clip-path="url(#clip152)" style="stroke:#0000ff; stroke-linecap:round; stroke-linejoin:round; stroke-width:8; stroke-opacity:1; fill:none" points="1412.8,695.115 1804.75,355.68 "></polyline>
<polyline clip-path="url(#clip152)" style="stroke:#0000ff; stroke-linecap:round; stroke-linejoin:round; stroke-width:8; stroke-opacity:1; fill:none" points="1125.88,159.707 1804.75,355.68 "></polyline>
</svg>