<svg xmlns="http://www.w3.org/2000/svg" xmlns:xlink="http://www.w3.org/1999/xlink" width="600" height="400" viewBox="0 0 2400 1600">
<defs>
  <clipPath id="clip140">
    <rect x="0" y="0" width="2400" height="1600"></rect>
  </clipPath>
</defs>
<path clip-path="url(#clip140)" d="M0 1600 L2400 1600 L2400 0 L0 0  Z" fill="#ffffff" fill-rule="evenodd" fill-opacity="1"></path>
<defs>
  <clipPath id="clip141">
    <rect x="480" y="0" width="1681" height="1600"></rect>
  </clipPath>
</defs>
<defs>
  <clipPath id="clip142">
    <rect x="185" y="47" width="2168" height="1440"></rect>
  </clipPath>
</defs>
<path clip-path="url(#clip142)" d="M-531.496 1990.73 L-531.496 1651.3 L-335.523 1481.58 L3.91136 1579.57 L3.91136 1919 L-192.061 2088.72 L-531.496 1990.73  Z" fill="#ffffff" fill-rule="evenodd" fill-opacity="1"></path>
<polyline clip-path="url(#clip142)" style="stroke:#000000; stroke-linecap:round; stroke-linejoin:round; stroke-width:2; stroke-opacity:0.1; fill:none" points="722.175,1208.56 1137.64,848.76 1137.64,129.158 "></polyline>
<polyline clip-path="url(#clip142)" style="stroke:#000000; stroke-linecap:round; stroke-linejoin:round; stroke-width:2; stroke-opacity:0.1; fill:none" points="891.893,1257.55 1307.36,897.753 1307.36,178.151 "></polyline>
<polyline clip-path="url(#clip142)" style="stroke:#000000; stroke-linecap:round; stroke-linejoin:round; stroke-width:2; stroke-opacity:0.1; fill:none" points="1061.61,1306.55 1477.07,946.746 1477.07,227.145 "></polyline>
<polyline clip-path="url(#clip142)" style="stroke:#000000; stroke-linecap:round; stroke-linejoin:round; stroke-width:2; stroke-opacity:0.1; fill:none" points="1231.33,1355.54 1646.79,995.74 1646.79,276.138 "></polyline>
<polyline clip-path="url(#clip142)" style="stroke:#000000; stroke-linecap:round; stroke-linejoin:round; stroke-width:2; stroke-opacity:0.1; fill:none" points="1401.05,1404.53 1816.51,1044.73 1816.51,325.131 "></polyline>
<polyline clip-path="url(#clip142)" style="stroke:#000000; stroke-linecap:round; stroke-linejoin:round; stroke-width:2; stroke-opacity:0.1; fill:none" points="1433.17,1400.23 713.568,1192.5 713.568,472.897 "></polyline>
<polyline clip-path="url(#clip142)" style="stroke:#000000; stroke-linecap:round; stroke-linejoin:round; stroke-width:2; stroke-opacity:0.1; fill:none" points="1531.16,1315.37 811.554,1107.64 811.554,388.038 "></polyline>
<polyline clip-path="url(#clip142)" style="stroke:#000000; stroke-linecap:round; stroke-linejoin:round; stroke-width:2; stroke-opacity:0.1; fill:none" points="1629.14,1230.51 909.54,1022.78 909.54,303.179 "></polyline>
<polyline clip-path="url(#clip142)" style="stroke:#000000; stroke-linecap:round; stroke-linejoin:round; stroke-width:2; stroke-opacity:0.1; fill:none" points="1727.13,1145.65 1007.53,937.923 1007.53,218.321 "></polyline>
<polyline clip-path="url(#clip142)" style="stroke:#000000; stroke-linecap:round; stroke-linejoin:round; stroke-width:2; stroke-opacity:0.1; fill:none" points="1825.12,1060.8 1105.51,853.064 1105.51,133.462 "></polyline>
<polyline clip-path="url(#clip142)" style="stroke:#000000; stroke-linecap:round; stroke-linejoin:round; stroke-width:2; stroke-opacity:0.1; fill:none" points="701.809,1182.32 1117.27,822.515 1836.87,1030.25 "></polyline>
<polyline clip-path="url(#clip142)" style="stroke:#000000; stroke-linecap:round; stroke-linejoin:round; stroke-width:2; stroke-opacity:0.1; fill:none" points="701.809,1012.6 1117.27,652.797 1836.87,860.529 "></polyline>
<polyline clip-path="url(#clip142)" style="stroke:#000000; stroke-linecap:round; stroke-linejoin:round; stroke-width:2; stroke-opacity:0.1; fill:none" points="701.809,842.881 1117.27,483.08 1836.87,690.811 "></polyline>
<polyline clip-path="url(#clip142)" style="stroke:#000000; stroke-linecap:round; stroke-linejoin:round; stroke-width:2; stroke-opacity:0.1; fill:none" points="701.809,673.163 1117.27,313.362 1836.87,521.094 "></polyline>
<polyline clip-path="url(#clip142)" style="stroke:#000000; stroke-linecap:round; stroke-linejoin:round; stroke-width:2; stroke-opacity:0.1; fill:none" points="701.809,503.446 1117.27,143.645 1836.87,351.376 "></polyline>
<polyline clip-path="url(#clip140)" style="stroke:#000000; stroke-linecap:round; stroke-linejoin:round; stroke-width:4; stroke-opacity:1; fill:none" points="701.809,1202.68 1421.41,1410.41 "></polyline>
<polyline clip-path="url(#clip140)" style="stroke:#000000; stroke-linecap:round; stroke-linejoin:round; stroke-width:4; stroke-opacity:1; fill:none" points="722.175,1208.56 727.161,1204.24 "></polyline>
<polyline clip-path="url(#clip140)" style="stroke:#000000; stroke-linecap:round; stroke-linejoin:round; stroke-width:4; stroke-opacity:1; fill:none" points="891.893,1257.55 896.878,1253.24 "></polyline>
<polyline clip-path="url(#clip140)" style="stroke:#000000; stroke-linecap:round; stroke-linejoin:round; stroke-width:4; stroke-opacity:1; fill:none" points="1061.61,1306.55 1066.6,1302.23 "></polyline>
<polyline clip-path="url(#clip140)" style="stroke:#000000; stroke-linecap:round; stroke-linejoin:round; stroke-width:4; stroke-opacity:1; fill:none" points="1231.33,1355.54 1236.31,1351.22 "></polyline>
<polyline clip-path="url(#clip140)" style="stroke:#000000; stroke-linecap:round; stroke-linejoin:round; stroke-width:4; stroke-opacity:1; fill:none" points="1401.05,1404.53 1406.03,1400.22 "></polyline>
<path clip-path="url(#clip140)" d="M694.28 1249.58 L701.919 1249.58 L701.919 1223.21 L693.609 1224.88 L693.609 1220.62 L701.873 1218.95 L706.549 1218.95 L706.549 1249.58 L714.188 1249.58 L714.188 1253.51 L694.28 1253.51 L694.28 1249.58 Z" fill="#000000" fill-rule="nonzero" fill-opacity="1"></path><path clip-path="url(#clip140)" d="M867.586 1298.57 L883.905 1298.57 L883.905 1302.5 L861.961 1302.5 L861.961 1298.57 Q864.623 1295.81 869.206 1291.18 Q873.813 1286.53 874.993 1285.19 Q877.238 1282.67 878.118 1280.93 Q879.021 1279.17 879.021 1277.48 Q879.021 1274.73 877.076 1272.99 Q875.155 1271.25 872.053 1271.25 Q869.854 1271.25 867.401 1272.02 Q864.97 1272.78 862.192 1274.33 L862.192 1269.61 Q865.016 1268.48 867.47 1267.9 Q869.924 1267.32 871.961 1267.32 Q877.331 1267.32 880.525 1270 Q883.72 1272.69 883.72 1277.18 Q883.72 1279.31 882.91 1281.23 Q882.123 1283.13 880.016 1285.72 Q879.437 1286.39 876.336 1289.61 Q873.234 1292.81 867.586 1298.57 Z" fill="#000000" fill-rule="nonzero" fill-opacity="1"></path><path clip-path="url(#clip140)" d="M1046.49 1332.86 Q1049.85 1333.58 1051.72 1335.85 Q1053.62 1338.12 1053.62 1341.45 Q1053.62 1346.57 1050.1 1349.37 Q1046.59 1352.17 1040.1 1352.17 Q1037.93 1352.17 1035.61 1351.73 Q1033.32 1351.31 1030.87 1350.46 L1030.87 1345.94 Q1032.81 1347.08 1035.13 1347.65 Q1037.44 1348.23 1039.97 1348.23 Q1044.36 1348.23 1046.65 1346.5 Q1048.97 1344.76 1048.97 1341.45 Q1048.97 1338.4 1046.82 1336.68 Q1044.69 1334.95 1040.87 1334.95 L1036.84 1334.95 L1036.84 1331.1 L1041.05 1331.1 Q1044.5 1331.1 1046.33 1329.74 Q1048.16 1328.35 1048.16 1325.76 Q1048.16 1323.09 1046.26 1321.68 Q1044.39 1320.25 1040.87 1320.25 Q1038.95 1320.25 1036.75 1320.66 Q1034.55 1321.08 1031.91 1321.96 L1031.91 1317.79 Q1034.57 1317.05 1036.89 1316.68 Q1039.22 1316.31 1041.28 1316.31 Q1046.61 1316.31 1049.71 1318.74 Q1052.81 1321.15 1052.81 1325.27 Q1052.81 1328.14 1051.17 1330.13 Q1049.53 1332.1 1046.49 1332.86 Z" fill="#000000" fill-rule="nonzero" fill-opacity="1"></path><path clip-path="url(#clip140)" d="M1213.76 1370 L1201.95 1388.45 L1213.76 1388.45 L1213.76 1370 M1212.53 1365.93 L1218.41 1365.93 L1218.41 1388.45 L1223.34 1388.45 L1223.34 1392.34 L1218.41 1392.34 L1218.41 1400.49 L1213.76 1400.49 L1213.76 1392.34 L1198.15 1392.34 L1198.15 1387.83 L1212.53 1365.93 Z" fill="#000000" fill-rule="nonzero" fill-opacity="1"></path><path clip-path="url(#clip140)" d="M1372.15 1414.92 L1390.51 1414.92 L1390.51 1418.86 L1376.44 1418.86 L1376.44 1427.33 Q1377.46 1426.98 1378.47 1426.82 Q1379.49 1426.64 1380.51 1426.64 Q1386.3 1426.64 1389.68 1429.81 Q1393.06 1432.98 1393.06 1438.4 Q1393.06 1443.97 1389.59 1447.08 Q1386.11 1450.16 1379.79 1450.16 Q1377.62 1450.16 1375.35 1449.78 Q1373.1 1449.41 1370.7 1448.67 L1370.7 1443.97 Q1372.78 1445.11 1375 1445.66 Q1377.22 1446.22 1379.7 1446.22 Q1383.71 1446.22 1386.04 1444.11 Q1388.38 1442.01 1388.38 1438.4 Q1388.38 1434.78 1386.04 1432.68 Q1383.71 1430.57 1379.7 1430.57 Q1377.83 1430.57 1375.95 1430.99 Q1374.1 1431.41 1372.15 1432.28 L1372.15 1414.92 Z" fill="#000000" fill-rule="nonzero" fill-opacity="1"></path><polyline clip-path="url(#clip140)" style="stroke:#000000; stroke-linecap:round; stroke-linejoin:round; stroke-width:4; stroke-opacity:1; fill:none" points="1421.41,1410.41 1836.87,1050.61 "></polyline>
<polyline clip-path="url(#clip140)" style="stroke:#000000; stroke-linecap:round; stroke-linejoin:round; stroke-width:4; stroke-opacity:1; fill:none" points="1433.17,1400.23 1424.53,1397.74 "></polyline>
<polyline clip-path="url(#clip140)" style="stroke:#000000; stroke-linecap:round; stroke-linejoin:round; stroke-width:4; stroke-opacity:1; fill:none" points="1531.16,1315.37 1522.52,1312.88 "></polyline>
<polyline clip-path="url(#clip140)" style="stroke:#000000; stroke-linecap:round; stroke-linejoin:round; stroke-width:4; stroke-opacity:1; fill:none" points="1629.14,1230.51 1620.51,1228.02 "></polyline>
<polyline clip-path="url(#clip140)" style="stroke:#000000; stroke-linecap:round; stroke-linejoin:round; stroke-width:4; stroke-opacity:1; fill:none" points="1727.13,1145.65 1718.49,1143.16 "></polyline>
<polyline clip-path="url(#clip140)" style="stroke:#000000; stroke-linecap:round; stroke-linejoin:round; stroke-width:4; stroke-opacity:1; fill:none" points="1825.12,1060.8 1816.48,1058.3 "></polyline>
<path clip-path="url(#clip140)" d="M1452.69 1435.35 L1460.33 1435.35 L1460.33 1408.98 L1452.02 1410.65 L1452.02 1406.39 L1460.29 1404.72 L1464.96 1404.72 L1464.96 1435.35 L1472.6 1435.35 L1472.6 1439.28 L1452.69 1439.28 L1452.69 1435.35 Z" fill="#000000" fill-rule="nonzero" fill-opacity="1"></path><path clip-path="url(#clip140)" d="M1555.63 1350.49 L1571.95 1350.49 L1571.95 1354.42 L1550.01 1354.42 L1550.01 1350.49 Q1552.67 1347.73 1557.26 1343.1 Q1561.86 1338.45 1563.04 1337.11 Q1565.29 1334.58 1566.17 1332.85 Q1567.07 1331.09 1567.07 1329.4 Q1567.07 1326.64 1565.13 1324.91 Q1563.2 1323.17 1560.1 1323.17 Q1557.9 1323.17 1555.45 1323.94 Q1553.02 1324.7 1550.24 1326.25 L1550.24 1321.53 Q1553.07 1320.39 1555.52 1319.82 Q1557.97 1319.24 1560.01 1319.24 Q1565.38 1319.24 1568.57 1321.92 Q1571.77 1324.61 1571.77 1329.1 Q1571.77 1331.23 1570.96 1333.15 Q1570.17 1335.05 1568.07 1337.64 Q1567.49 1338.31 1564.38 1341.53 Q1561.28 1344.72 1555.63 1350.49 Z" fill="#000000" fill-rule="nonzero" fill-opacity="1"></path><path clip-path="url(#clip140)" d="M1663.62 1250.93 Q1666.98 1251.65 1668.85 1253.92 Q1670.75 1256.18 1670.75 1259.52 Q1670.75 1264.63 1667.23 1267.43 Q1663.71 1270.23 1657.23 1270.23 Q1655.06 1270.23 1652.74 1269.79 Q1650.45 1269.38 1648 1268.52 L1648 1264.01 Q1649.94 1265.14 1652.26 1265.72 Q1654.57 1266.3 1657.09 1266.3 Q1661.49 1266.3 1663.78 1264.56 Q1666.1 1262.83 1666.1 1259.52 Q1666.1 1256.46 1663.95 1254.75 Q1661.82 1253.01 1658 1253.01 L1653.97 1253.01 L1653.97 1249.17 L1658.18 1249.17 Q1661.63 1249.17 1663.46 1247.8 Q1665.29 1246.42 1665.29 1243.82 Q1665.29 1241.16 1663.39 1239.75 Q1661.51 1238.31 1658 1238.31 Q1656.07 1238.31 1653.88 1238.73 Q1651.68 1239.15 1649.04 1240.03 L1649.04 1235.86 Q1651.7 1235.12 1654.01 1234.75 Q1656.35 1234.38 1658.41 1234.38 Q1663.74 1234.38 1666.84 1236.81 Q1669.94 1239.22 1669.94 1243.34 Q1669.94 1246.21 1668.3 1248.2 Q1666.65 1250.17 1663.62 1250.93 Z" fill="#000000" fill-rule="nonzero" fill-opacity="1"></path><path clip-path="url(#clip140)" d="M1761.58 1154.22 L1749.78 1172.67 L1761.58 1172.67 L1761.58 1154.22 M1760.36 1150.14 L1766.24 1150.14 L1766.24 1172.67 L1771.17 1172.67 L1771.17 1176.56 L1766.24 1176.56 L1766.24 1184.7 L1761.58 1184.7 L1761.58 1176.56 L1745.98 1176.56 L1745.98 1172.04 L1760.36 1150.14 Z" fill="#000000" fill-rule="nonzero" fill-opacity="1"></path><path clip-path="url(#clip140)" d="M1845.43 1065.29 L1863.78 1065.29 L1863.78 1069.22 L1849.71 1069.22 L1849.71 1077.69 Q1850.73 1077.35 1851.75 1077.18 Q1852.77 1077 1853.78 1077 Q1859.57 1077 1862.95 1080.17 Q1866.33 1083.34 1866.33 1088.76 Q1866.33 1094.34 1862.86 1097.44 Q1859.39 1100.52 1853.07 1100.52 Q1850.89 1100.52 1848.62 1100.15 Q1846.38 1099.78 1843.97 1099.04 L1843.97 1094.34 Q1846.05 1095.47 1848.27 1096.03 Q1850.5 1096.58 1852.97 1096.58 Q1856.98 1096.58 1859.32 1094.48 Q1861.65 1092.37 1861.65 1088.76 Q1861.65 1085.15 1859.32 1083.04 Q1856.98 1080.93 1852.97 1080.93 Q1851.1 1080.93 1849.22 1081.35 Q1847.37 1081.77 1845.43 1082.65 L1845.43 1065.29 Z" fill="#000000" fill-rule="nonzero" fill-opacity="1"></path><polyline clip-path="url(#clip140)" style="stroke:#000000; stroke-linecap:round; stroke-linejoin:round; stroke-width:4; stroke-opacity:1; fill:none" points="701.809,1202.68 701.809,483.08 "></polyline>
<polyline clip-path="url(#clip140)" style="stroke:#000000; stroke-linecap:round; stroke-linejoin:round; stroke-width:4; stroke-opacity:1; fill:none" points="701.809,1182.32 706.795,1178 "></polyline>
<polyline clip-path="url(#clip140)" style="stroke:#000000; stroke-linecap:round; stroke-linejoin:round; stroke-width:4; stroke-opacity:1; fill:none" points="701.809,1012.6 706.795,1008.28 "></polyline>
<polyline clip-path="url(#clip140)" style="stroke:#000000; stroke-linecap:round; stroke-linejoin:round; stroke-width:4; stroke-opacity:1; fill:none" points="701.809,842.881 706.795,838.563 "></polyline>
<polyline clip-path="url(#clip140)" style="stroke:#000000; stroke-linecap:round; stroke-linejoin:round; stroke-width:4; stroke-opacity:1; fill:none" points="701.809,673.163 706.795,668.846 "></polyline>
<polyline clip-path="url(#clip140)" style="stroke:#000000; stroke-linecap:round; stroke-linejoin:round; stroke-width:4; stroke-opacity:1; fill:none" points="701.809,503.446 706.795,499.128 "></polyline>
<path clip-path="url(#clip140)" d="M576.482 1195.66 L584.121 1195.66 L584.121 1169.29 L575.811 1170.96 L575.811 1166.7 L584.075 1165.04 L588.75 1165.04 L588.75 1195.66 L596.389 1195.66 L596.389 1199.6 L576.482 1199.6 L576.482 1195.66 Z" fill="#000000" fill-rule="nonzero" fill-opacity="1"></path><path clip-path="url(#clip140)" d="M605.834 1193.72 L610.718 1193.72 L610.718 1199.6 L605.834 1199.6 L605.834 1193.72 Z" fill="#000000" fill-rule="nonzero" fill-opacity="1"></path><path clip-path="url(#clip140)" d="M630.903 1168.11 Q627.292 1168.11 625.463 1171.68 Q623.658 1175.22 623.658 1182.35 Q623.658 1189.46 625.463 1193.02 Q627.292 1196.56 630.903 1196.56 Q634.537 1196.56 636.343 1193.02 Q638.171 1189.46 638.171 1182.35 Q638.171 1175.22 636.343 1171.68 Q634.537 1168.11 630.903 1168.11 M630.903 1164.41 Q636.713 1164.41 639.769 1169.02 Q642.847 1173.6 642.847 1182.35 Q642.847 1191.08 639.769 1195.68 Q636.713 1200.27 630.903 1200.27 Q625.093 1200.27 622.014 1195.68 Q618.959 1191.08 618.959 1182.35 Q618.959 1173.6 622.014 1169.02 Q625.093 1164.41 630.903 1164.41 Z" fill="#000000" fill-rule="nonzero" fill-opacity="1"></path><path clip-path="url(#clip140)" d="M661.065 1168.11 Q657.454 1168.11 655.625 1171.68 Q653.82 1175.22 653.82 1182.35 Q653.82 1189.46 655.625 1193.02 Q657.454 1196.56 661.065 1196.56 Q664.699 1196.56 666.505 1193.02 Q668.333 1189.46 668.333 1182.35 Q668.333 1175.22 666.505 1171.68 Q664.699 1168.11 661.065 1168.11 M661.065 1164.41 Q666.875 1164.41 669.931 1169.02 Q673.009 1173.6 673.009 1182.35 Q673.009 1191.08 669.931 1195.68 Q666.875 1200.27 661.065 1200.27 Q655.255 1200.27 652.176 1195.68 Q649.12 1191.08 649.12 1182.35 Q649.12 1173.6 652.176 1169.02 Q655.255 1164.41 661.065 1164.41 Z" fill="#000000" fill-rule="nonzero" fill-opacity="1"></path><path clip-path="url(#clip140)" d="M577.477 1025.94 L585.116 1025.94 L585.116 999.578 L576.806 1001.24 L576.806 996.985 L585.07 995.318 L589.746 995.318 L589.746 1025.94 L597.385 1025.94 L597.385 1029.88 L577.477 1029.88 L577.477 1025.94 Z" fill="#000000" fill-rule="nonzero" fill-opacity="1"></path><path clip-path="url(#clip140)" d="M606.829 1024 L611.713 1024 L611.713 1029.88 L606.829 1029.88 L606.829 1024 Z" fill="#000000" fill-rule="nonzero" fill-opacity="1"></path><path clip-path="url(#clip140)" d="M625.926 1025.94 L642.246 1025.94 L642.246 1029.88 L620.301 1029.88 L620.301 1025.94 Q622.963 1023.19 627.547 1018.56 Q632.153 1013.91 633.334 1012.56 Q635.579 1010.04 636.458 1008.3 Q637.361 1006.55 637.361 1004.86 Q637.361 1002.1 635.417 1000.36 Q633.496 998.628 630.394 998.628 Q628.195 998.628 625.741 999.392 Q623.31 1000.16 620.533 1001.71 L620.533 996.985 Q623.357 995.851 625.81 995.272 Q628.264 994.693 630.301 994.693 Q635.671 994.693 638.866 997.378 Q642.06 1000.06 642.06 1004.55 Q642.06 1006.68 641.25 1008.61 Q640.463 1010.5 638.357 1013.1 Q637.778 1013.77 634.676 1016.98 Q631.574 1020.18 625.926 1025.94 Z" fill="#000000" fill-rule="nonzero" fill-opacity="1"></path><path clip-path="url(#clip140)" d="M652.107 995.318 L670.463 995.318 L670.463 999.253 L656.389 999.253 L656.389 1007.73 Q657.407 1007.38 658.426 1007.22 Q659.444 1007.03 660.463 1007.03 Q666.25 1007.03 669.63 1010.2 Q673.009 1013.37 673.009 1018.79 Q673.009 1024.37 669.537 1027.47 Q666.065 1030.55 659.745 1030.55 Q657.569 1030.55 655.301 1030.18 Q653.056 1029.81 650.648 1029.07 L650.648 1024.37 Q652.732 1025.5 654.954 1026.06 Q657.176 1026.61 659.653 1026.61 Q663.657 1026.61 665.995 1024.51 Q668.333 1022.4 668.333 1018.79 Q668.333 1015.18 665.995 1013.07 Q663.657 1010.97 659.653 1010.97 Q657.778 1010.97 655.903 1011.38 Q654.051 1011.8 652.107 1012.68 L652.107 995.318 Z" fill="#000000" fill-rule="nonzero" fill-opacity="1"></path><path clip-path="url(#clip140)" d="M576.482 856.226 L584.121 856.226 L584.121 829.86 L575.811 831.527 L575.811 827.268 L584.075 825.601 L588.75 825.601 L588.75 856.226 L596.389 856.226 L596.389 860.161 L576.482 860.161 L576.482 856.226 Z" fill="#000000" fill-rule="nonzero" fill-opacity="1"></path><path clip-path="url(#clip140)" d="M605.834 854.281 L610.718 854.281 L610.718 860.161 L605.834 860.161 L605.834 854.281 Z" fill="#000000" fill-rule="nonzero" fill-opacity="1"></path><path clip-path="url(#clip140)" d="M620.949 825.601 L639.306 825.601 L639.306 829.536 L625.232 829.536 L625.232 838.008 Q626.25 837.661 627.269 837.499 Q628.287 837.314 629.306 837.314 Q635.093 837.314 638.472 840.485 Q641.852 843.656 641.852 849.073 Q641.852 854.652 638.38 857.753 Q634.908 860.832 628.588 860.832 Q626.412 860.832 624.144 860.462 Q621.898 860.091 619.491 859.351 L619.491 854.652 Q621.574 855.786 623.797 856.341 Q626.019 856.897 628.496 856.897 Q632.5 856.897 634.838 854.791 Q637.176 852.684 637.176 849.073 Q637.176 845.462 634.838 843.355 Q632.5 841.249 628.496 841.249 Q626.621 841.249 624.746 841.666 Q622.894 842.082 620.949 842.962 L620.949 825.601 Z" fill="#000000" fill-rule="nonzero" fill-opacity="1"></path><path clip-path="url(#clip140)" d="M661.065 828.68 Q657.454 828.68 655.625 832.244 Q653.82 835.786 653.82 842.916 Q653.82 850.022 655.625 853.587 Q657.454 857.128 661.065 857.128 Q664.699 857.128 666.505 853.587 Q668.333 850.022 668.333 842.916 Q668.333 835.786 666.505 832.244 Q664.699 828.68 661.065 828.68 M661.065 824.976 Q666.875 824.976 669.931 829.582 Q673.009 834.166 673.009 842.916 Q673.009 851.642 669.931 856.249 Q666.875 860.832 661.065 860.832 Q655.255 860.832 652.176 856.249 Q649.12 851.642 649.12 842.916 Q649.12 834.166 652.176 829.582 Q655.255 824.976 661.065 824.976 Z" fill="#000000" fill-rule="nonzero" fill-opacity="1"></path><path clip-path="url(#clip140)" d="M577.477 686.508 L585.116 686.508 L585.116 660.143 L576.806 661.809 L576.806 657.55 L585.07 655.883 L589.746 655.883 L589.746 686.508 L597.385 686.508 L597.385 690.443 L577.477 690.443 L577.477 686.508 Z" fill="#000000" fill-rule="nonzero" fill-opacity="1"></path><path clip-path="url(#clip140)" d="M606.829 684.564 L611.713 684.564 L611.713 690.443 L606.829 690.443 L606.829 684.564 Z" fill="#000000" fill-rule="nonzero" fill-opacity="1"></path><path clip-path="url(#clip140)" d="M620.718 655.883 L642.94 655.883 L642.94 657.874 L630.394 690.443 L625.509 690.443 L637.315 659.819 L620.718 659.819 L620.718 655.883 Z" fill="#000000" fill-rule="nonzero" fill-opacity="1"></path><path clip-path="url(#clip140)" d="M652.107 655.883 L670.463 655.883 L670.463 659.819 L656.389 659.819 L656.389 668.291 Q657.407 667.944 658.426 667.782 Q659.444 667.596 660.463 667.596 Q666.25 667.596 669.63 670.768 Q673.009 673.939 673.009 679.356 Q673.009 684.934 669.537 688.036 Q666.065 691.115 659.745 691.115 Q657.569 691.115 655.301 690.744 Q653.056 690.374 650.648 689.633 L650.648 684.934 Q652.732 686.068 654.954 686.624 Q657.176 687.18 659.653 687.18 Q663.657 687.18 665.995 685.073 Q668.333 682.967 668.333 679.356 Q668.333 675.744 665.995 673.638 Q663.657 671.532 659.653 671.532 Q657.778 671.532 655.903 671.948 Q654.051 672.365 652.107 673.244 L652.107 655.883 Z" fill="#000000" fill-rule="nonzero" fill-opacity="1"></path><path clip-path="url(#clip140)" d="M579.7 516.791 L596.019 516.791 L596.019 520.726 L574.075 520.726 L574.075 516.791 Q576.737 514.036 581.32 509.407 Q585.926 504.754 587.107 503.411 Q589.352 500.888 590.232 499.152 Q591.135 497.393 591.135 495.703 Q591.135 492.948 589.19 491.212 Q587.269 489.476 584.167 489.476 Q581.968 489.476 579.514 490.24 Q577.084 491.004 574.306 492.555 L574.306 487.833 Q577.13 486.698 579.584 486.12 Q582.037 485.541 584.075 485.541 Q589.445 485.541 592.639 488.226 Q595.834 490.911 595.834 495.402 Q595.834 497.532 595.024 499.453 Q594.236 501.351 592.13 503.944 Q591.551 504.615 588.449 507.833 Q585.348 511.027 579.7 516.791 Z" fill="#000000" fill-rule="nonzero" fill-opacity="1"></path><path clip-path="url(#clip140)" d="M605.834 514.846 L610.718 514.846 L610.718 520.726 L605.834 520.726 L605.834 514.846 Z" fill="#000000" fill-rule="nonzero" fill-opacity="1"></path><path clip-path="url(#clip140)" d="M630.903 489.245 Q627.292 489.245 625.463 492.809 Q623.658 496.351 623.658 503.481 Q623.658 510.587 625.463 514.152 Q627.292 517.694 630.903 517.694 Q634.537 517.694 636.343 514.152 Q638.171 510.587 638.171 503.481 Q638.171 496.351 636.343 492.809 Q634.537 489.245 630.903 489.245 M630.903 485.541 Q636.713 485.541 639.769 490.147 Q642.847 494.731 642.847 503.481 Q642.847 512.208 639.769 516.814 Q636.713 521.397 630.903 521.397 Q625.093 521.397 622.014 516.814 Q618.959 512.208 618.959 503.481 Q618.959 494.731 622.014 490.147 Q625.093 485.541 630.903 485.541 Z" fill="#000000" fill-rule="nonzero" fill-opacity="1"></path><path clip-path="url(#clip140)" d="M661.065 489.245 Q657.454 489.245 655.625 492.809 Q653.82 496.351 653.82 503.481 Q653.82 510.587 655.625 514.152 Q657.454 517.694 661.065 517.694 Q664.699 517.694 666.505 514.152 Q668.333 510.587 668.333 503.481 Q668.333 496.351 666.505 492.809 Q664.699 489.245 661.065 489.245 M661.065 485.541 Q666.875 485.541 669.931 490.147 Q673.009 494.731 673.009 503.481 Q673.009 512.208 669.931 516.814 Q666.875 521.397 661.065 521.397 Q655.255 521.397 652.176 516.814 Q649.12 512.208 649.12 503.481 Q649.12 494.731 652.176 490.147 Q655.255 485.541 661.065 485.541 Z" fill="#000000" fill-rule="nonzero" fill-opacity="1"></path><polyline clip-path="url(#clip142)" style="stroke:#0000ff; stroke-linecap:round; stroke-linejoin:round; stroke-width:8; stroke-opacity:1; fill:none" points="733.934,1178.01 903.651,1227.01 "></polyline>
<polyline clip-path="url(#clip142)" style="stroke:#0000ff; stroke-linecap:round; stroke-linejoin:round; stroke-width:8; stroke-opacity:1; fill:none" points="733.934,1178.01 831.92,1093.15 "></polyline>
<polyline clip-path="url(#clip142)" style="stroke:#0000ff; stroke-linecap:round; stroke-linejoin:round; stroke-width:8; stroke-opacity:1; fill:none" points="733.934,1178.01 733.934,499.142 "></polyline>
<polyline clip-path="url(#clip142)" style="stroke:#0000ff; stroke-linecap:round; stroke-linejoin:round; stroke-width:8; stroke-opacity:1; fill:none" points="903.651,1227.01 1073.37,1276 "></polyline>
<polyline clip-path="url(#clip142)" style="stroke:#0000ff; stroke-linecap:round; stroke-linejoin:round; stroke-width:8; stroke-opacity:1; fill:none" points="903.651,1227.01 1001.64,1142.15 "></polyline>
<polyline clip-path="url(#clip142)" style="stroke:#0000ff; stroke-linecap:round; stroke-linejoin:round; stroke-width:8; stroke-opacity:1; fill:none" points="903.651,1227.01 903.651,548.135 "></polyline>
<polyline clip-path="url(#clip142)" style="stroke:#0000ff; stroke-linecap:round; stroke-linejoin:round; stroke-width:8; stroke-opacity:1; fill:none" points="1073.37,1276 1243.09,1324.99 "></polyline>
<polyline clip-path="url(#clip142)" style="stroke:#0000ff; stroke-linecap:round; stroke-linejoin:round; stroke-width:8; stroke-opacity:1; fill:none" points="1073.37,1276 1171.35,1191.14 "></polyline>
<polyline clip-path="url(#clip142)" style="stroke:#0000ff; stroke-linecap:round; stroke-linejoin:round; stroke-width:8; stroke-opacity:1; fill:none" points="1073.37,1276 1073.37,597.129 "></polyline>
<polyline clip-path="url(#clip142)" style="stroke:#0000ff; stroke-linecap:round; stroke-linejoin:round; stroke-width:8; stroke-opacity:1; fill:none" points="1243.09,1324.99 1412.8,1373.98 "></polyline>
<polyline clip-path="url(#clip142)" style="stroke:#0000ff; stroke-linecap:round; stroke-linejoin:round; stroke-width:8; stroke-opacity:1; fill:none" points="1243.09,1324.99 1341.07,1240.13 "></polyline>
<polyline clip-path="url(#clip142)" style="stroke:#0000ff; stroke-linecap:round; stroke-linejoin:round; stroke-width:8; stroke-opacity:1; fill:none" points="1243.09,1324.99 1243.09,646.122 "></polyline>
<polyline clip-path="url(#clip142)" style="stroke:#0000ff; stroke-linecap:round; stroke-linejoin:round; stroke-width:8; stroke-opacity:1; fill:none" points="1412.8,1373.98 1510.79,1289.13 "></polyline>
<polyline clip-path="url(#clip142)" style="stroke:#0000ff; stroke-linecap:round; stroke-linejoin:round; stroke-width:8; stroke-opacity:1; fill:none" points="1412.8,1373.98 1412.8,695.115 "></polyline>
<polyline clip-path="url(#clip142)" style="stroke:#0000ff; stroke-linecap:round; stroke-linejoin:round; stroke-width:8; stroke-opacity:1; fill:none" points="831.92,1093.15 1001.64,1142.15 "></polyline>
<polyline clip-path="url(#clip142)" style="stroke:#0000ff; stroke-linecap:round; stroke-linejoin:round; stroke-width:8; stroke-opacity:1; fill:none" points="831.92,1093.15 929.906,1008.29 "></polyline>
<polyline clip-path="url(#clip142)" style="stroke:#0000ff; stroke-linecap:round; stroke-linejoin:round; stroke-width:8; stroke-opacity:1; fill:none" points="831.92,1093.15 831.92,414.283 "></polyline>
<polyline clip-path="url(#clip142)" style="stroke:#0000ff; stroke-linecap:round; stroke-linejoin:round; stroke-width:8; stroke-opacity:1; fill:none" points="1001.64,1142.15 1171.35,1191.14 "></polyline>
<polyline clip-path="url(#clip142)" style="stroke:#0000ff; stroke-linecap:round; stroke-linejoin:round; stroke-width:8; stroke-opacity:1; fill:none" points="1001.64,1142.15 1099.62,1057.29 "></polyline>
<polyline clip-path="url(#clip142)" style="stroke:#0000ff; stroke-linecap:round; stroke-linejoin:round; stroke-width:8; stroke-opacity:1; fill:none" points="1001.64,1142.15 1001.64,463.277 "></polyline>
<polyline clip-path="url(#clip142)" style="stroke:#0000ff; stroke-linecap:round; stroke-linejoin:round; stroke-width:8; stroke-opacity:1; fill:none" points="1171.35,1191.14 1341.07,1240.13 "></polyline>
<polyline clip-path="url(#clip142)" style="stroke:#0000ff; stroke-linecap:round; stroke-linejoin:round; stroke-width:8; stroke-opacity:1; fill:none" points="1171.35,1191.14 1171.35,512.27 "></polyline>
<polyline clip-path="url(#clip142)" style="stroke:#0000ff; stroke-linecap:round; stroke-linejoin:round; stroke-width:8; stroke-opacity:1; fill:none" points="1341.07,1240.13 1510.79,1289.13 "></polyline>
<polyline clip-path="url(#clip142)" style="stroke:#0000ff; stroke-linecap:round; stroke-linejoin:round; stroke-width:8; stroke-opacity:1; fill:none" points="1341.07,1240.13 1439.06,1155.27 "></polyline>
<polyline clip-path="url(#clip142)" style="stroke:#0000ff; stroke-linecap:round; stroke-linejoin:round; stroke-width:8; stroke-opacity:1; fill:none" points="1341.07,1240.13 1341.07,561.263 "></polyline>
<polyline clip-path="url(#clip142)" style="stroke:#0000ff; stroke-linecap:round; stroke-linejoin:round; stroke-width:8; stroke-opacity:1; fill:none" points="1510.79,1289.13 1608.78,1204.27 "></polyline>
<polyline clip-path="url(#clip142)" style="stroke:#0000ff; stroke-linecap:round; stroke-linejoin:round; stroke-width:8; stroke-opacity:1; fill:none" points="1510.79,1289.13 1510.79,610.256 "></polyline>
<polyline clip-path="url(#clip142)" style="stroke:#0000ff; stroke-linecap:round; stroke-linejoin:round; stroke-width:8; stroke-opacity:1; fill:none" points="929.906,1008.29 1099.62,1057.29 "></polyline>
<polyline clip-path="url(#clip142)" style="stroke:#0000ff; stroke-linecap:round; stroke-linejoin:round; stroke-width:8; stroke-opacity:1; fill:none" points="929.906,1008.29 1027.89,923.436 "></polyline>
<polyline clip-path="url(#clip142)" style="stroke:#0000ff; stroke-linecap:round; stroke-linejoin:round; stroke-width:8; stroke-opacity:1; fill:none" points="929.906,1008.29 929.906,329.425 "></polyline>
<polyline clip-path="url(#clip142)" style="stroke:#0000ff; stroke-linecap:round; stroke-linejoin:round; stroke-width:8; stroke-opacity:1; fill:none" points="1099.62,1057.29 1197.61,972.429 "></polyline>
<polyline clip-path="url(#clip142)" style="stroke:#0000ff; stroke-linecap:round; stroke-linejoin:round; stroke-width:8; stroke-opacity:1; fill:none" points="1099.62,1057.29 1099.62,378.418 "></polyline>
<polyline clip-path="url(#clip142)" style="stroke:#0000ff; stroke-linecap:round; stroke-linejoin:round; stroke-width:8; stroke-opacity:1; fill:none" points="1439.06,1155.27 1608.78,1204.27 "></polyline>
<polyline clip-path="url(#clip142)" style="stroke:#0000ff; stroke-linecap:round; stroke-linejoin:round; stroke-width:8; stroke-opacity:1; fill:none" points="1439.06,1155.27 1537.05,1070.42 "></polyline>
<polyline clip-path="url(#clip142)" style="stroke:#0000ff; stroke-linecap:round; stroke-linejoin:round; stroke-width:8; stroke-opacity:1; fill:none" points="1439.06,1155.27 1439.06,476.404 "></polyline>
<polyline clip-path="url(#clip142)" style="stroke:#0000ff; stroke-linecap:round; stroke-linejoin:round; stroke-width:8; stroke-opacity:1; fill:none" points="1608.78,1204.27 1706.76,1119.41 "></polyline>
<polyline clip-path="url(#clip142)" style="stroke:#0000ff; stroke-linecap:round; stroke-linejoin:round; stroke-width:8; stroke-opacity:1; fill:none" points="1608.78,1204.27 1608.78,525.398 "></polyline>
<polyline clip-path="url(#clip142)" style="stroke:#0000ff; stroke-linecap:round; stroke-linejoin:round; stroke-width:8; stroke-opacity:1; fill:none" points="1027.89,923.436 1197.61,972.429 "></polyline>
<polyline clip-path="url(#clip142)" style="stroke:#0000ff; stroke-linecap:round; stroke-linejoin:round; stroke-width:8; stroke-opacity:1; fill:none" points="1027.89,923.436 1125.88,838.577 "></polyline>
<polyline clip-path="url(#clip142)" style="stroke:#0000ff; stroke-linecap:round; stroke-linejoin:round; stroke-width:8; stroke-opacity:1; fill:none" points="1027.89,923.436 1027.89,244.566 "></polyline>
<polyline clip-path="url(#clip142)" style="stroke:#0000ff; stroke-linecap:round; stroke-linejoin:round; stroke-width:8; stroke-opacity:1; fill:none" points="1197.61,972.429 1367.33,1021.42 "></polyline>
<polyline clip-path="url(#clip142)" style="stroke:#0000ff; stroke-linecap:round; stroke-linejoin:round; stroke-width:8; stroke-opacity:1; fill:none" points="1197.61,972.429 1295.6,887.57 "></polyline>
<polyline clip-path="url(#clip142)" style="stroke:#0000ff; stroke-linecap:round; stroke-linejoin:round; stroke-width:8; stroke-opacity:1; fill:none" points="1197.61,972.429 1197.61,293.559 "></polyline>
<polyline clip-path="url(#clip142)" style="stroke:#0000ff; stroke-linecap:round; stroke-linejoin:round; stroke-width:8; stroke-opacity:1; fill:none" points="1367.33,1021.42 1537.05,1070.42 "></polyline>
<polyline clip-path="url(#clip142)" style="stroke:#0000ff; stroke-linecap:round; stroke-linejoin:round; stroke-width:8; stroke-opacity:1; fill:none" points="1367.33,1021.42 1465.31,936.563 "></polyline>
<polyline clip-path="url(#clip142)" style="stroke:#0000ff; stroke-linecap:round; stroke-linejoin:round; stroke-width:8; stroke-opacity:1; fill:none" points="1367.33,1021.42 1367.33,342.552 "></polyline>
<polyline clip-path="url(#clip142)" style="stroke:#0000ff; stroke-linecap:round; stroke-linejoin:round; stroke-width:8; stroke-opacity:1; fill:none" points="1537.05,1070.42 1706.76,1119.41 "></polyline>
<polyline clip-path="url(#clip142)" style="stroke:#0000ff; stroke-linecap:round; stroke-linejoin:round; stroke-width:8; stroke-opacity:1; fill:none" points="1537.05,1070.42 1635.03,985.557 "></polyline>
<polyline clip-path="url(#clip142)" style="stroke:#0000ff; stroke-linecap:round; stroke-linejoin:round; stroke-width:8; stroke-opacity:1; fill:none" points="1537.05,1070.42 1537.05,391.546 "></polyline>
<polyline clip-path="url(#clip142)" style="stroke:#0000ff; stroke-linecap:round; stroke-linejoin:round; stroke-width:8; stroke-opacity:1; fill:none" points="1706.76,1119.41 1804.75,1034.55 "></polyline>
<polyline clip-path="url(#clip142)" style="stroke:#0000ff; stroke-linecap:round; stroke-linejoin:round; stroke-width:8; stroke-opacity:1; fill:none" points="1706.76,1119.41 1706.76,440.539 "></polyline>
<polyline clip-path="url(#clip142)" style="stroke:#0000ff; stroke-linecap:round; stroke-linejoin:round; stroke-width:8; stroke-opacity:1; fill:none" points="1125.88,838.577 1295.6,887.57 "></polyline>
<polyline clip-path="url(#clip142)" style="stroke:#0000ff; stroke-linecap:round; stroke-linejoin:round; stroke-width:8; stroke-opacity:1; fill:none" points="1125.88,838.577 1125.88,159.707 "></polyline>
<polyline clip-path="url(#clip142)" style="stroke:#0000ff; stroke-linecap:round; stroke-linejoin:round; stroke-width:8; stroke-opacity:1; fill:none" points="1295.6,887.57 1465.31,936.563 "></polyline>
<polyline clip-path="url(#clip142)" style="stroke:#0000ff; stroke-linecap:round; stroke-linejoin:round; stroke-width:8; stroke-opacity:1; fill:none" points="1295.6,887.57 1295.6,208.701 "></polyline>
<polyline clip-path="url(#clip142)" style="stroke:#0000ff; stroke-linecap:round; stroke-linejoin:round; stroke-width:8; stroke-opacity:1; fill:none" points="1465.31,936.563 1635.03,985.557 "></polyline>
<polyline clip-path="url(#clip142)" style="stroke:#0000ff; stroke-linecap:round; stroke-linejoin:round; stroke-width:8; stroke-opacity:1; fill:none" points="1465.31,936.563 1465.31,257.694 "></polyline>
<polyline clip-path="url(#clip142)" style="stroke:#0000ff; stroke-linecap:round; stroke-linejoin:round; stroke-width:8; stroke-opacity:1; fill:none" points="1635.03,985.557 1804.75,1034.55 "></polyline>
<polyline clip-path="url(#clip142)" style="stroke:#0000ff; stroke-linecap:round; stroke-linejoin:round; stroke-width:8; stroke-opacity:1; fill:none" points="1635.03,985.557 1635.03,306.687 "></polyline>
<polyline clip-path="url(#clip142)" style="stroke:#0000ff; stroke-linecap:round; stroke-linejoin:round; stroke-width:8; stroke-opacity:1; fill:none" points="1804.75,1034.55 1804.75,355.68 "></polyline>
<polyline clip-path="url(#clip142)" style="stroke:#0000ff; stroke-linecap:round; stroke-linejoin:round; stroke-width:8; stroke-opacity:1; fill:none" points="733.934,499.142 903.651,548.135 "></polyline>
<polyline clip-path="url(#clip142)" style="stroke:#0000ff; stroke-linecap:round; stroke-linejoin:round; stroke-width:8; stroke-opacity:1; fill:none" points="733.934,499.142 831.92,414.283 "></polyline>
<polyline clip-path="url(#clip142)" style="stroke:#0000ff; stroke-linecap:round; stroke-linejoin:round; stroke-width:8; stroke-opacity:1; fill:none" points="903.651,548.135 1073.37,597.129 "></polyline>
<polyline clip-path="url(#clip142)" style="stroke:#0000ff; stroke-linecap:round; stroke-linejoin:round; stroke-width:8; stroke-opacity:1; fill:none" points="903.651,548.135 1001.64,463.277 "></polyline>
<polyline clip-path="url(#clip142)" style="stroke:#0000ff; stroke-linecap:round; stroke-linejoin:round; stroke-width:8; stroke-opacity:1; fill:none" points="1073.37,597.129 1243.09,646.122 "></polyline>
<polyline clip-path="url(#clip142)" style="stroke:#0000ff; stroke-linecap:round; stroke-linejoin:round; stroke-width:8; stroke-opacity:1; fill:none" points="1073.37,597.129 1171.35,512.27 "></polyline>
<polyline clip-path="url(#clip142)" style="stroke:#0000ff; stroke-linecap:round; stroke-linejoin:round; stroke-width:8; stroke-opacity:1; fill:none" points="1243.09,646.122 1412.8,695.115 "></polyline>
<polyline clip-path="url(#clip142)" style="stroke:#0000ff; stroke-linecap:round; stroke-linejoin:round; stroke-width:8; stroke-opacity:1; fill:none" points="1243.09,646.122 1341.07,561.263 "></polyline>
<polyline clip-path="url(#clip142)" style="stroke:#0000ff; stroke-linecap:round; stroke-linejoin:round; stroke-width:8; stroke-opacity:1; fill:none" points="1412.8,695.115 1510.79,610.256 "></polyline>
<polyline clip-path="url(#clip142)" style="stroke:#0000ff; stroke-linecap:round; stroke-linejoin:round; stroke-width:8; stroke-opacity:1; fill:none" points="831.92,414.283 1001.64,463.277 "></polyline>
<polyline clip-path="url(#clip142)" style="stroke:#0000ff; stroke-linecap:round; stroke-linejoin:round; stroke-width:8; stroke-opacity:1; fill:none" points="831.92,414.283 929.906,329.425 "></polyline>
<polyline clip-path="url(#clip142)" style="stroke:#0000ff; stroke-linecap:round; stroke-linejoin:round; stroke-width:8; stroke-opacity:1; fill:none" points="1001.64,463.277 1171.35,512.27 "></polyline>
<polyline clip-path="url(#clip142)" style="stroke:#0000ff; stroke-linecap:round; stroke-linejoin:round; stroke-width:8; stroke-opacity:1; fill:none" points="1001.64,463.277 1099.62,378.418 "></polyline>
<polyline clip-path="url(#clip142)" style="stroke:#0000ff; stroke-linecap:round; stroke-linejoin:round; stroke-width:8; stroke-opacity:1; fill:none" points="1171.35,512.27 1341.07,561.263 "></polyline>
<polyline clip-path="url(#clip142)" style="stroke:#0000ff; stroke-linecap:round; stroke-linejoin:round; stroke-width:8; stroke-opacity:1; fill:none" points="1341.07,561.263 1510.79,610.256 "></polyline>
<polyline clip-path="url(#clip142)" style="stroke:#0000ff; stroke-linecap:round; stroke-linejoin:round; stroke-width:8; stroke-opacity:1; fill:none" points="1341.07,561.263 1439.06,476.404 "></polyline>
<polyline clip-path="url(#clip142)" style="stroke:#0000ff; stroke-linecap:round; stroke-linejoin:round; stroke-width:8; stroke-opacity:1; fill:none" points="1510.79,610.256 1608.78,525.398 "></polyline>
<polyline clip-path="url(#clip142)" style="stroke:#0000ff; stroke-linecap:round; stroke-linejoin:round; stroke-width:8; stroke-opacity:1; fill:none" points="929.906,329.425 1099.62,378.418 "></polyline>
<polyline clip-path="url(#clip142)" style="stroke:#0000ff; stroke-linecap:round; stroke-linejoin:round; stroke-width:8; stroke-opacity:1; fill:none" points="929.906,329.425 1027.89,244.566 "></polyline>
<polyline clip-path="url(#clip142)" style="stroke:#0000ff; stroke-linecap:round; stroke-linejoin:round; stroke-width:8; stroke-opacity:1; fill:none" points="1099.62,378.418 1197.61,293.559 "></polyline>
<polyline clip-path="url(#clip142)" style="stroke:#0000ff; stroke-linecap:round; stroke-linejoin:round; stroke-width:8; stroke-opacity:1; fill:none" points="1439.06,476.404 1608.78,525.398 "></polyline>
<polyline clip-path="url(#clip142)" style="stroke:#0000ff; stroke-linecap:round; stroke-linejoin:round; stroke-width:8; stroke-opacity:1; fill:none" points="1439.06,476.404 1537.05,391.546 "></polyline>
<polyline clip-path="url(#clip142)" style="stroke:#0000ff; stroke-linecap:round; stroke-linejoin:round; stroke-width:8; stroke-opacity:1; fill:none" points="1608.78,525.398 1706.76,440.539 "></polyline>
<polyline clip-path="url(#clip142)" style="stroke:#0000ff; stroke-linecap:round; stroke-linejoin:round; stroke-width:8; stroke-opacity:1; fill:none" points="1027.89,244.566 1197.61,293.559 "></polyline>
<polyline clip-path="url(#clip142)" style="stroke:#0000ff; stroke-linecap:round; stroke-linejoin:round; stroke-width:8; stroke-opacity:1; fill:none" points="1027.89,244.566 1125.88,159.707 "></polyline>
<polyline clip-path="url(#clip142)" style="stroke:#0000ff; stroke-linecap:round; stroke-linejoin:round; stroke-width:8; stroke-opacity:1; fill:none" points="1197.61,293.559 1367.33,342.552 "></polyline>
<polyline clip-path="url(#clip142)" style="stroke:#0000ff; stroke-linecap:round; stroke-linejoin:round; stroke-width:8; stroke-opacity:1; fill:none" points="1197.61,293.559 1295.6,208.701 "></polyline>
<polyline clip-path="url(#clip142)" style="stroke:#0000ff; stroke-linecap:round; stroke-linejoin:round; stroke-width:8; stroke-opacity:1; fill:none" points="1367.33,342.552 1537.05,391.546 "></polyline>
<polyline clip-path="url(#clip142)" style="stroke:#0000ff; stroke-linecap:round; stroke-linejoin:round; stroke-width:8; stroke-opacity:1; fill:none" points="1367.33,342.552 1465.31,257.694 "></polyline>
<polyline clip-path="url(#clip142)" style="stroke:#0000ff; stroke-linecap:round; stroke-linejoin:round; stroke-width:8; stroke-opacity:1; fill:none" points="1537.05,391.546 1706.76,440.539 "></polyline>
<polyline clip-path="url(#clip142)" style="stroke:#0000ff; stroke-linecap:round; stroke-linejoin:round; stroke-width:8; stroke-opacity:1; fill:none" points="1537.05,391.546 1635.03,306.687 "></polyline>
<polyline clip-path="url(#clip142)" style="stroke:#0000ff; stroke-linecap:round; stroke-linejoin:round; stroke-width:8; stroke-opacity:1; fill:none" points="1706.76,440.539 1804.75,355.68 "></polyline>
<polyline clip-path="url(#clip142)" style="stroke:#0000ff; stroke-linecap:round; stroke-linejoin:round; stroke-width:8; stroke-opacity:1; fill:none" points="1125.88,159.707 1295.6,208.701 "></polyline>
<polyline clip-path="url(#clip142)" style="stroke:#0000ff; stroke-linecap:round; stroke-linejoin:round; stroke-width:8; stroke-opacity:1; fill:none" points="1295.6,208.701 1465.31,257.694 "></polyline>
<polyline clip-path="url(#clip142)" style="stroke:#0000ff; stroke-linecap:round; stroke-linejoin:round; stroke-width:8; stroke-opacity:1; fill:none" points="1465.31,257.694 1635.03,306.687 "></polyline>
<polyline clip-path="url(#clip142)" style="stroke:#0000ff; stroke-linecap:round; stroke-linejoin:round; stroke-width:8; stroke-opacity:1; fill:none" points="1635.03,306.687 1804.75,355.68 "></polyline>
</svg>